<mxfile host="Electron" modified="2024-03-25T21:55:24.999Z" agent="Mozilla/5.0 (Windows NT 10.0; Win64; x64) AppleWebKit/537.36 (KHTML, like Gecko) draw.io/24.1.0 Chrome/120.0.6099.109 Electron/28.1.0 Safari/537.36" etag="u03S6dXTdljHs6GGXufh" version="24.1.0" type="device">
  <diagram id="bsTosLUH5mfE9uCYUgKQ" name="Page-1">
    <mxGraphModel dx="-870" dy="1829" grid="1" gridSize="10" guides="1" tooltips="1" connect="1" arrows="1" fold="1" page="1" pageScale="1" pageWidth="1920" pageHeight="1200" math="0" shadow="0">
      <root>
        <mxCell id="0" />
        <mxCell id="1" parent="0" />
        <mxCell id="8j6VqZWyWBpULk93ZD53-1" value="" style="rounded=0;whiteSpace=wrap;html=1;fontSize=22;fillColor=#f5f5f5;fontColor=#333333;strokeColor=#666666;direction=east;strokeWidth=2;fontStyle=1" parent="1" vertex="1">
          <mxGeometry x="1930" y="50" width="2680" height="1810" as="geometry" />
        </mxCell>
        <mxCell id="8j6VqZWyWBpULk93ZD53-3" value="" style="rounded=0;whiteSpace=wrap;html=1;strokeWidth=2;fontStyle=1;" parent="1" vertex="1">
          <mxGeometry x="1962" y="1380" width="2608" height="454.19" as="geometry" />
        </mxCell>
        <mxCell id="8j6VqZWyWBpULk93ZD53-2" value="" style="rounded=0;whiteSpace=wrap;html=1;strokeWidth=2;fontStyle=1;" parent="1" vertex="1">
          <mxGeometry x="1962.5" y="1072.5" width="2607.5" height="307.5" as="geometry" />
        </mxCell>
        <mxCell id="8j6VqZWyWBpULk93ZD53-86" value="" style="rounded=0;whiteSpace=wrap;html=1;strokeWidth=2;fontStyle=1;labelBackgroundColor=default;endArrow=classic;fontSize=12;strokeColor=default;" parent="1" vertex="1">
          <mxGeometry x="1963" y="830" width="2607" height="279.19" as="geometry" />
        </mxCell>
        <mxCell id="8j6VqZWyWBpULk93ZD53-4" value="" style="rounded=0;whiteSpace=wrap;html=1;strokeWidth=2;fontStyle=1;" parent="1" vertex="1">
          <mxGeometry x="1963" y="100" width="2607" height="340" as="geometry" />
        </mxCell>
        <mxCell id="_2NASYxuOexbDyS9MmBw-3" value="" style="rounded=0;whiteSpace=wrap;html=1;strokeWidth=2;fontStyle=1;" parent="1" vertex="1">
          <mxGeometry x="1963" y="440" width="2607" height="390" as="geometry" />
        </mxCell>
        <mxCell id="8j6VqZWyWBpULk93ZD53-5" value="CLAIMANT/&lt;br&gt;SUBSCRIBER" style="text;html=1;align=center;verticalAlign=middle;resizable=0;points=[];autosize=1;strokeColor=none;fillColor=none;fontStyle=1;fontSize=23;strokeWidth=2;horizontal=0;" parent="1" vertex="1">
          <mxGeometry x="1959" y="165" width="80" height="170" as="geometry" />
        </mxCell>
        <mxCell id="_2NASYxuOexbDyS9MmBw-7" style="edgeStyle=orthogonalEdgeStyle;rounded=0;orthogonalLoop=1;jettySize=auto;html=1;exitX=0.5;exitY=1;exitDx=0;exitDy=0;exitPerimeter=0;entryX=0.5;entryY=0;entryDx=0;entryDy=0;strokeColor=#00CC00;fillColor=default;strokeWidth=2;fontStyle=1;" parent="1" source="8j6VqZWyWBpULk93ZD53-7" target="_2NASYxuOexbDyS9MmBw-1" edge="1">
          <mxGeometry relative="1" as="geometry" />
        </mxCell>
        <mxCell id="8j6VqZWyWBpULk93ZD53-7" value="&lt;b style=&quot;font-size: 11px;&quot;&gt;START&lt;br&gt;(OFFLINE)&lt;br&gt;&lt;/b&gt;" style="strokeWidth=2;html=1;shape=mxgraph.flowchart.terminator;whiteSpace=wrap;fillColor=#d5e8d4;strokeColor=#82b366;fontSize=11;" parent="1" vertex="1">
          <mxGeometry x="2125.5" y="123.5" width="100" height="40" as="geometry" />
        </mxCell>
        <mxCell id="8j6VqZWyWBpULk93ZD53-27" value="LM.1" style="text;html=1;align=center;verticalAlign=middle;resizable=0;points=[];autosize=1;strokeColor=none;fillColor=none;fontStyle=1;strokeWidth=2;fontSize=29;" parent="1" vertex="1">
          <mxGeometry x="3221.5" y="50" width="90" height="50" as="geometry" />
        </mxCell>
        <mxCell id="8j6VqZWyWBpULk93ZD53-28" value="B" style="ellipse;whiteSpace=wrap;html=1;aspect=fixed;strokeWidth=2;fontStyle=1;fontSize=22;direction=south;" parent="1" vertex="1">
          <mxGeometry x="1960" y="65" width="30" height="30" as="geometry" />
        </mxCell>
        <mxCell id="8j6VqZWyWBpULk93ZD53-72" value="&lt;font style=&quot;font-size: 14px;&quot;&gt;LEGEND&lt;/font&gt;" style="swimlane;whiteSpace=wrap;html=1;" parent="1" vertex="1">
          <mxGeometry x="4610" y="100" width="200" height="230" as="geometry" />
        </mxCell>
        <mxCell id="8j6VqZWyWBpULk93ZD53-73" value="KM" style="ellipse;whiteSpace=wrap;html=1;fillColor=#dae8fc;strokeColor=#6c8ebf;gradientColor=#7ea6e0;fontStyle=1" parent="8j6VqZWyWBpULk93ZD53-72" vertex="1">
          <mxGeometry x="10" y="30" width="30" height="26" as="geometry" />
        </mxCell>
        <mxCell id="8j6VqZWyWBpULk93ZD53-74" value="IDA" style="ellipse;whiteSpace=wrap;html=1;fillColor=#dae8fc;strokeColor=#6c8ebf;gradientColor=#7ea6e0;fontStyle=1" parent="8j6VqZWyWBpULk93ZD53-72" vertex="1">
          <mxGeometry x="10" y="131" width="30" height="26" as="geometry" />
        </mxCell>
        <mxCell id="8j6VqZWyWBpULk93ZD53-75" value="HSM" style="ellipse;whiteSpace=wrap;html=1;fillColor=#dae8fc;strokeColor=#6c8ebf;gradientColor=#7ea6e0;fontStyle=1" parent="8j6VqZWyWBpULk93ZD53-72" vertex="1">
          <mxGeometry x="10" y="91" width="30" height="26" as="geometry" />
        </mxCell>
        <mxCell id="8j6VqZWyWBpULk93ZD53-76" value="KR" style="ellipse;whiteSpace=wrap;html=1;fillColor=#dae8fc;strokeColor=#6c8ebf;gradientColor=#7ea6e0;fontStyle=1" parent="8j6VqZWyWBpULk93ZD53-72" vertex="1">
          <mxGeometry x="10" y="59" width="30" height="26" as="geometry" />
        </mxCell>
        <mxCell id="8j6VqZWyWBpULk93ZD53-77" value="Key Manager" style="text;html=1;strokeColor=none;fillColor=none;align=center;verticalAlign=middle;whiteSpace=wrap;rounded=0;fontSize=14;" parent="8j6VqZWyWBpULk93ZD53-72" vertex="1">
          <mxGeometry x="40" y="30" width="160" height="28" as="geometry" />
        </mxCell>
        <mxCell id="8j6VqZWyWBpULk93ZD53-78" value="Key Revocation" style="text;html=1;strokeColor=none;fillColor=none;align=center;verticalAlign=middle;whiteSpace=wrap;rounded=0;fontSize=14;" parent="8j6VqZWyWBpULk93ZD53-72" vertex="1">
          <mxGeometry x="40" y="58" width="160" height="28" as="geometry" />
        </mxCell>
        <mxCell id="8j6VqZWyWBpULk93ZD53-79" value="Hardware Security Module" style="text;html=1;strokeColor=none;fillColor=none;align=center;verticalAlign=middle;whiteSpace=wrap;rounded=0;fontSize=14;" parent="8j6VqZWyWBpULk93ZD53-72" vertex="1">
          <mxGeometry x="40" y="90" width="160" height="28" as="geometry" />
        </mxCell>
        <mxCell id="8j6VqZWyWBpULk93ZD53-80" value="ID Authentication (DB)" style="text;html=1;strokeColor=none;fillColor=none;align=center;verticalAlign=middle;whiteSpace=wrap;rounded=0;fontSize=14;" parent="8j6VqZWyWBpULk93ZD53-72" vertex="1">
          <mxGeometry x="40" y="130" width="160" height="28" as="geometry" />
        </mxCell>
        <mxCell id="8j6VqZWyWBpULk93ZD53-81" value="AC" style="ellipse;whiteSpace=wrap;html=1;fillColor=#dae8fc;strokeColor=#6c8ebf;gradientColor=#7ea6e0;fontStyle=1" parent="8j6VqZWyWBpULk93ZD53-72" vertex="1">
          <mxGeometry x="10" y="161" width="30" height="26" as="geometry" />
        </mxCell>
        <mxCell id="8j6VqZWyWBpULk93ZD53-82" value="Access Control" style="text;html=1;strokeColor=none;fillColor=none;align=center;verticalAlign=middle;whiteSpace=wrap;rounded=0;fontSize=14;" parent="8j6VqZWyWBpULk93ZD53-72" vertex="1">
          <mxGeometry x="40" y="160" width="160" height="28" as="geometry" />
        </mxCell>
        <mxCell id="oByt-uk4F92XMUXTlmi7-10" value="Certificate Authority" style="text;html=1;strokeColor=none;fillColor=none;align=center;verticalAlign=middle;whiteSpace=wrap;rounded=0;fontSize=14;" parent="8j6VqZWyWBpULk93ZD53-72" vertex="1">
          <mxGeometry x="40" y="190" width="160" height="28" as="geometry" />
        </mxCell>
        <mxCell id="oByt-uk4F92XMUXTlmi7-11" value="CA" style="ellipse;whiteSpace=wrap;html=1;fillColor=#dae8fc;strokeColor=#6c8ebf;gradientColor=#7ea6e0;fontStyle=1" parent="8j6VqZWyWBpULk93ZD53-72" vertex="1">
          <mxGeometry x="10" y="191" width="30" height="26" as="geometry" />
        </mxCell>
        <mxCell id="8j6VqZWyWBpULk93ZD53-6" value="PRIVATE NETWORK&lt;br style=&quot;border-color: var(--border-color);&quot;&gt;SYSTEMS (SERVER)" style="text;html=1;align=center;verticalAlign=middle;resizable=0;points=[];autosize=1;strokeColor=none;fillColor=none;fontStyle=1;fontSize=23;strokeWidth=2;horizontal=0;" parent="1" vertex="1">
          <mxGeometry x="1973" y="1489.19" width="80" height="240" as="geometry" />
        </mxCell>
        <mxCell id="8j6VqZWyWBpULk93ZD53-62" value="PUBLIC NETWORK&lt;br style=&quot;border-color: var(--border-color);&quot;&gt;SYSTEMS (CLIENT)" style="text;html=1;align=center;verticalAlign=middle;resizable=0;points=[];autosize=1;strokeColor=none;fillColor=none;fontStyle=1;fontSize=23;strokeWidth=2;horizontal=0;" parent="1" vertex="1">
          <mxGeometry x="1973" y="1124.19" width="80" height="230" as="geometry" />
        </mxCell>
        <mxCell id="8j6VqZWyWBpULk93ZD53-88" value="ADMINISTRATOR" style="text;html=1;align=center;verticalAlign=middle;resizable=0;points=[];autosize=1;strokeColor=none;fillColor=none;fontStyle=1;fontSize=23;strokeWidth=2;horizontal=0;" parent="1" vertex="1">
          <mxGeometry x="1971" y="855.19" width="50" height="200" as="geometry" />
        </mxCell>
        <mxCell id="ba738cxxTfw0AVTlm2XA-3" style="edgeStyle=orthogonalEdgeStyle;rounded=0;orthogonalLoop=1;jettySize=auto;html=1;exitX=1;exitY=0.5;exitDx=0;exitDy=0;exitPerimeter=0;entryX=0;entryY=0.5;entryDx=0;entryDy=0;strokeColor=#00CC00;strokeWidth=2;fontStyle=1;" parent="1" target="ba738cxxTfw0AVTlm2XA-1" edge="1">
          <mxGeometry relative="1" as="geometry">
            <mxPoint x="3591.88" y="1696.5" as="targetPoint" />
            <mxPoint x="3551.88" y="1696.75" as="sourcePoint" />
          </mxGeometry>
        </mxCell>
        <mxCell id="8j6VqZWyWBpULk93ZD53-147" value="" style="edgeStyle=orthogonalEdgeStyle;rounded=0;orthogonalLoop=1;jettySize=auto;html=1;strokeColor=#00CC00;fontStyle=1;strokeWidth=2;" parent="1" source="8j6VqZWyWBpULk93ZD53-148" target="8j6VqZWyWBpULk93ZD53-149" edge="1">
          <mxGeometry relative="1" as="geometry" />
        </mxCell>
        <mxCell id="8j6VqZWyWBpULk93ZD53-148" value="LOGS THE PROCESS AND STATUS" style="rounded=0;whiteSpace=wrap;html=1;fontStyle=1;strokeWidth=2;" parent="1" vertex="1">
          <mxGeometry x="4426.88" y="1690" width="120" height="49.88" as="geometry" />
        </mxCell>
        <mxCell id="8j6VqZWyWBpULk93ZD53-149" value="&lt;b&gt;END&lt;/b&gt;" style="strokeWidth=2;html=1;shape=mxgraph.flowchart.terminator;whiteSpace=wrap;fillColor=#f8cecc;strokeColor=#b85450;" parent="1" vertex="1">
          <mxGeometry x="4436.88" y="1768.88" width="100" height="40" as="geometry" />
        </mxCell>
        <mxCell id="8j6VqZWyWBpULk93ZD53-150" value="IDA" style="ellipse;whiteSpace=wrap;html=1;fillColor=#dae8fc;strokeColor=#6c8ebf;gradientColor=#7ea6e0;fontStyle=1" parent="1" vertex="1">
          <mxGeometry x="4426.88" y="1664" width="30" height="26" as="geometry" />
        </mxCell>
        <mxCell id="vKcRW2vyYmiQf7ZIil2U-3" value="&lt;font style=&quot;font-size: 14px;&quot;&gt;PUBLIC NETWORK&lt;/font&gt;" style="swimlane;whiteSpace=wrap;html=1;" parent="1" vertex="1">
          <mxGeometry x="4610" y="1140" width="200" height="167" as="geometry" />
        </mxCell>
        <mxCell id="vKcRW2vyYmiQf7ZIil2U-4" value="DNS SERVERS" style="text;html=1;strokeColor=none;fillColor=none;align=center;verticalAlign=middle;whiteSpace=wrap;rounded=0;fontSize=14;" parent="vKcRW2vyYmiQf7ZIil2U-3" vertex="1">
          <mxGeometry y="27" width="200" height="28" as="geometry" />
        </mxCell>
        <mxCell id="vKcRW2vyYmiQf7ZIil2U-5" value="FTP SERVERS" style="text;html=1;strokeColor=none;fillColor=none;align=center;verticalAlign=middle;whiteSpace=wrap;rounded=0;fontSize=14;" parent="vKcRW2vyYmiQf7ZIil2U-3" vertex="1">
          <mxGeometry y="55" width="200" height="28" as="geometry" />
        </mxCell>
        <mxCell id="vKcRW2vyYmiQf7ZIil2U-6" value="MAIL SERVERS" style="text;html=1;strokeColor=none;fillColor=none;align=center;verticalAlign=middle;whiteSpace=wrap;rounded=0;fontSize=14;" parent="vKcRW2vyYmiQf7ZIil2U-3" vertex="1">
          <mxGeometry y="83" width="200" height="28" as="geometry" />
        </mxCell>
        <mxCell id="vKcRW2vyYmiQf7ZIil2U-7" value="PROXY SERVERS" style="text;html=1;strokeColor=none;fillColor=none;align=center;verticalAlign=middle;whiteSpace=wrap;rounded=0;fontSize=14;" parent="vKcRW2vyYmiQf7ZIil2U-3" vertex="1">
          <mxGeometry y="111" width="200" height="28" as="geometry" />
        </mxCell>
        <mxCell id="vKcRW2vyYmiQf7ZIil2U-8" value="WEB SERVERS" style="text;html=1;strokeColor=none;fillColor=none;align=center;verticalAlign=middle;whiteSpace=wrap;rounded=0;fontSize=14;" parent="vKcRW2vyYmiQf7ZIil2U-3" vertex="1">
          <mxGeometry y="139" width="200" height="28" as="geometry" />
        </mxCell>
        <mxCell id="oByt-uk4F92XMUXTlmi7-1" value="USER" style="shape=umlActor;verticalLabelPosition=bottom;verticalAlign=top;html=1;outlineConnect=0;fontStyle=1" parent="1" vertex="1">
          <mxGeometry x="2053" y="220" width="30" height="60" as="geometry" />
        </mxCell>
        <mxCell id="oByt-uk4F92XMUXTlmi7-2" value="ADMIN" style="shape=umlActor;verticalLabelPosition=bottom;verticalAlign=top;html=1;outlineConnect=0;fontStyle=1" parent="1" vertex="1">
          <mxGeometry x="2053" y="908.86" width="30" height="60" as="geometry" />
        </mxCell>
        <mxCell id="RXy6DamFLEHfM2ugey37-2" value="UPDATING OFFLINE: PERSONALLY IDENTIFIABLE INFORMATION" style="text;html=1;align=center;verticalAlign=middle;resizable=0;points=[];autosize=1;strokeColor=none;fillColor=none;fontStyle=1;strokeWidth=2;fontSize=29;" parent="1" vertex="1">
          <mxGeometry x="3630" y="50" width="940" height="50" as="geometry" />
        </mxCell>
        <mxCell id="bOGRKbOoEIt-_d6ExcWd-81" style="edgeStyle=orthogonalEdgeStyle;rounded=0;orthogonalLoop=1;jettySize=auto;html=1;exitX=1;exitY=0.5;exitDx=0;exitDy=0;exitPerimeter=0;entryX=0.5;entryY=1;entryDx=0;entryDy=0;strokeColor=#00CC00;strokeWidth=2;fontStyle=1;" parent="1" source="RXy6DamFLEHfM2ugey37-26" target="bOGRKbOoEIt-_d6ExcWd-80" edge="1">
          <mxGeometry relative="1" as="geometry" />
        </mxCell>
        <mxCell id="RXy6DamFLEHfM2ugey37-26" value="&lt;span style=&quot;border-color: var(--border-color);&quot;&gt;&lt;b&gt;TERMINATE PROCESS:&lt;br&gt;&lt;/b&gt;LOCK UIN ACCOUNT FOR 24 HOURS&lt;br&gt;&lt;/span&gt;" style="strokeWidth=2;html=1;shape=mxgraph.flowchart.terminator;whiteSpace=wrap;fillColor=#f8cecc;strokeColor=#b85450;" parent="1" vertex="1">
          <mxGeometry x="3811.88" y="1763.75" width="220" height="49" as="geometry" />
        </mxCell>
        <mxCell id="RXy6DamFLEHfM2ugey37-27" value="KR" style="ellipse;whiteSpace=wrap;html=1;fillColor=#dae8fc;strokeColor=#6c8ebf;gradientColor=#7ea6e0;fontStyle=1" parent="1" vertex="1">
          <mxGeometry x="3901.88" y="1741.75" width="30" height="26" as="geometry" />
        </mxCell>
        <mxCell id="_2NASYxuOexbDyS9MmBw-48" style="edgeStyle=orthogonalEdgeStyle;rounded=0;orthogonalLoop=1;jettySize=auto;html=1;exitX=0.5;exitY=1;exitDx=0;exitDy=0;entryX=0.5;entryY=0;entryDx=0;entryDy=0;strokeColor=#00CC00;fillColor=default;strokeWidth=2;fontStyle=1;" parent="1" source="RXy6DamFLEHfM2ugey37-38" target="RXy6DamFLEHfM2ugey37-34" edge="1">
          <mxGeometry relative="1" as="geometry" />
        </mxCell>
        <mxCell id="RXy6DamFLEHfM2ugey37-38" value="IF &lt;br&gt;FILE SIZE AND FORMAT &lt;br&gt;ACCEPTABLE" style="rounded=0;whiteSpace=wrap;html=1;fontStyle=1;strokeWidth=2;fontSize=11;shape=rhombus;perimeter=rhombusPerimeter;" parent="1" vertex="1">
          <mxGeometry x="3425.37" y="1147.75" width="151.25" height="80.5" as="geometry" />
        </mxCell>
        <mxCell id="ba738cxxTfw0AVTlm2XA-6" style="edgeStyle=orthogonalEdgeStyle;rounded=0;orthogonalLoop=1;jettySize=auto;html=1;exitX=0.5;exitY=0;exitDx=0;exitDy=0;entryX=0.5;entryY=1;entryDx=0;entryDy=0;strokeColor=#00CC00;strokeWidth=2;fontStyle=1;" parent="1" source="ba738cxxTfw0AVTlm2XA-1" target="ba738cxxTfw0AVTlm2XA-5" edge="1">
          <mxGeometry relative="1" as="geometry" />
        </mxCell>
        <mxCell id="ba738cxxTfw0AVTlm2XA-7" style="edgeStyle=orthogonalEdgeStyle;rounded=0;orthogonalLoop=1;jettySize=auto;html=1;exitX=0.5;exitY=0;exitDx=0;exitDy=0;entryX=0.5;entryY=1;entryDx=0;entryDy=0;strokeColor=#00CC00;strokeWidth=2;fontStyle=1;" parent="1" source="bOGRKbOoEIt-_d6ExcWd-44" target="ba738cxxTfw0AVTlm2XA-8" edge="1">
          <mxGeometry relative="1" as="geometry">
            <mxPoint x="4531.88" y="1072.5" as="targetPoint" />
            <Array as="points">
              <mxPoint x="4009" y="1653" />
              <mxPoint x="4009" y="1227" />
            </Array>
          </mxGeometry>
        </mxCell>
        <mxCell id="ba738cxxTfw0AVTlm2XA-1" value="IF UPDATE &lt;br&gt;REQUEST FOR&lt;br&gt;NAME, ADDRESS,&lt;br&gt;D.O.B" style="rounded=0;whiteSpace=wrap;html=1;fontStyle=1;strokeWidth=2;fontSize=11;shape=rhombus;perimeter=rhombusPerimeter;" parent="1" vertex="1">
          <mxGeometry x="3591.88" y="1652.5" width="120" height="90" as="geometry" />
        </mxCell>
        <mxCell id="bOGRKbOoEIt-_d6ExcWd-47" style="edgeStyle=orthogonalEdgeStyle;rounded=0;orthogonalLoop=1;jettySize=auto;html=1;exitX=1;exitY=0.5;exitDx=0;exitDy=0;entryX=0.5;entryY=0;entryDx=0;entryDy=0;strokeColor=#00CC00;strokeWidth=2;fontStyle=1;" parent="1" source="_2NASYxuOexbDyS9MmBw-106" target="bOGRKbOoEIt-_d6ExcWd-46" edge="1">
          <mxGeometry relative="1" as="geometry" />
        </mxCell>
        <mxCell id="_2NASYxuOexbDyS9MmBw-107" style="edgeStyle=orthogonalEdgeStyle;rounded=0;orthogonalLoop=1;jettySize=auto;html=1;exitX=0.5;exitY=0;exitDx=0;exitDy=0;entryX=0.5;entryY=1;entryDx=0;entryDy=0;strokeColor=#00CC00;fillColor=default;strokeWidth=2;fontStyle=1;" parent="1" source="ba738cxxTfw0AVTlm2XA-5" target="_2NASYxuOexbDyS9MmBw-106" edge="1">
          <mxGeometry relative="1" as="geometry" />
        </mxCell>
        <mxCell id="ba738cxxTfw0AVTlm2XA-5" value="VALIDATE&amp;nbsp;&lt;u&gt;&lt;br&gt;&lt;/u&gt;POI/POA:&amp;nbsp;&lt;u style=&quot;border-color: var(--border-color);&quot;&gt;OB.2.A&lt;/u&gt;&lt;br style=&quot;border-color: var(--border-color);&quot;&gt;POR:&amp;nbsp;&lt;u style=&quot;border-color: var(--border-color);&quot;&gt;OB.2.B&lt;/u&gt;&lt;u&gt;&lt;br&gt;&lt;/u&gt;" style="rounded=0;whiteSpace=wrap;html=1;fontStyle=1;strokeWidth=2;fontSize=11;" parent="1" vertex="1">
          <mxGeometry x="3601" y="960" width="100" height="56.67" as="geometry" />
        </mxCell>
        <mxCell id="bOGRKbOoEIt-_d6ExcWd-48" style="edgeStyle=orthogonalEdgeStyle;rounded=0;orthogonalLoop=1;jettySize=auto;html=1;exitX=0.5;exitY=0;exitDx=0;exitDy=0;entryX=0.5;entryY=1;entryDx=0;entryDy=0;strokeColor=#00CC00;strokeWidth=2;fontStyle=1;" parent="1" source="ba738cxxTfw0AVTlm2XA-8" target="ba738cxxTfw0AVTlm2XA-9" edge="1">
          <mxGeometry relative="1" as="geometry" />
        </mxCell>
        <mxCell id="ba738cxxTfw0AVTlm2XA-8" value="RECEIVE OTP TO NEW EMAIL/ PHONE NUMBER" style="rounded=0;whiteSpace=wrap;html=1;fontStyle=1;strokeWidth=2;fontSize=11;" parent="1" vertex="1">
          <mxGeometry x="3941.88" y="741" width="135" height="60" as="geometry" />
        </mxCell>
        <mxCell id="bOGRKbOoEIt-_d6ExcWd-75" style="edgeStyle=orthogonalEdgeStyle;rounded=0;orthogonalLoop=1;jettySize=auto;html=1;exitX=0.5;exitY=0;exitDx=0;exitDy=0;entryX=0.5;entryY=0;entryDx=0;entryDy=0;strokeColor=#00CC00;strokeWidth=2;fontStyle=1;" parent="1" source="_2NASYxuOexbDyS9MmBw-111" target="bOGRKbOoEIt-_d6ExcWd-69" edge="1">
          <mxGeometry relative="1" as="geometry" />
        </mxCell>
        <mxCell id="_2NASYxuOexbDyS9MmBw-115" style="edgeStyle=orthogonalEdgeStyle;rounded=0;orthogonalLoop=1;jettySize=auto;html=1;exitX=0.5;exitY=0;exitDx=0;exitDy=0;strokeColor=#00CC00;fillColor=default;strokeWidth=2;fontStyle=1;" parent="1" source="ba738cxxTfw0AVTlm2XA-9" target="bOGRKbOoEIt-_d6ExcWd-69" edge="1">
          <mxGeometry relative="1" as="geometry" />
        </mxCell>
        <mxCell id="ba738cxxTfw0AVTlm2XA-9" value="AUTHENTICATE WITH RECEIVED OTP: &lt;u&gt;AU.2.A&lt;/u&gt;" style="rounded=0;whiteSpace=wrap;html=1;fontStyle=1;strokeWidth=2;fontSize=11;" parent="1" vertex="1">
          <mxGeometry x="3941.88" y="653.5" width="135" height="60" as="geometry" />
        </mxCell>
        <mxCell id="bOGRKbOoEIt-_d6ExcWd-37" value="" style="group" parent="1" vertex="1" connectable="0">
          <mxGeometry x="3413" y="1254.25" width="145" height="78" as="geometry" />
        </mxCell>
        <mxCell id="RXy6DamFLEHfM2ugey37-34" value="MASK &amp;amp; ENCRYPT REQUESTED&amp;nbsp; CHANGE OF ADDRESS AND POA SCAN COPY" style="rounded=0;whiteSpace=wrap;html=1;fontStyle=1;strokeWidth=2;fontSize=11;" parent="bOGRKbOoEIt-_d6ExcWd-37" vertex="1">
          <mxGeometry x="30" y="4.3799999999999955" width="115" height="69.25" as="geometry" />
        </mxCell>
        <mxCell id="RXy6DamFLEHfM2ugey37-35" value="KM" style="ellipse;whiteSpace=wrap;html=1;fillColor=#dae8fc;strokeColor=#6c8ebf;gradientColor=#7ea6e0;fontStyle=1" parent="bOGRKbOoEIt-_d6ExcWd-37" vertex="1">
          <mxGeometry width="30" height="26" as="geometry" />
        </mxCell>
        <mxCell id="RXy6DamFLEHfM2ugey37-36" value="HSM" style="ellipse;whiteSpace=wrap;html=1;fillColor=#dae8fc;strokeColor=#6c8ebf;gradientColor=#7ea6e0;fontStyle=1" parent="bOGRKbOoEIt-_d6ExcWd-37" vertex="1">
          <mxGeometry y="26" width="30" height="26" as="geometry" />
        </mxCell>
        <mxCell id="RXy6DamFLEHfM2ugey37-37" value="CA" style="ellipse;whiteSpace=wrap;html=1;fillColor=#dae8fc;strokeColor=#6c8ebf;gradientColor=#7ea6e0;fontStyle=1" parent="bOGRKbOoEIt-_d6ExcWd-37" vertex="1">
          <mxGeometry y="52" width="30" height="26" as="geometry" />
        </mxCell>
        <mxCell id="bOGRKbOoEIt-_d6ExcWd-45" value="" style="edgeStyle=orthogonalEdgeStyle;rounded=0;orthogonalLoop=1;jettySize=auto;html=1;exitX=1;exitY=0.5;exitDx=0;exitDy=0;entryX=0;entryY=0.5;entryDx=0;entryDy=0;strokeColor=#FF2617;strokeWidth=2;fontStyle=1;" parent="1" source="ba738cxxTfw0AVTlm2XA-1" target="bOGRKbOoEIt-_d6ExcWd-44" edge="1">
          <mxGeometry relative="1" as="geometry">
            <mxPoint x="3947.88" y="805" as="targetPoint" />
            <mxPoint x="3711.88" y="1696" as="sourcePoint" />
          </mxGeometry>
        </mxCell>
        <mxCell id="_2NASYxuOexbDyS9MmBw-117" style="edgeStyle=orthogonalEdgeStyle;rounded=0;orthogonalLoop=1;jettySize=auto;html=1;exitX=0.5;exitY=0;exitDx=0;exitDy=0;entryX=0;entryY=0.5;entryDx=0;entryDy=0;strokeColor=#00CC00;strokeWidth=2;fontStyle=1;" parent="1" source="bOGRKbOoEIt-_d6ExcWd-44" target="_2NASYxuOexbDyS9MmBw-110" edge="1">
          <mxGeometry relative="1" as="geometry">
            <Array as="points">
              <mxPoint x="3921" y="1653" />
              <mxPoint x="3921" y="326" />
            </Array>
          </mxGeometry>
        </mxCell>
        <mxCell id="bOGRKbOoEIt-_d6ExcWd-44" value="IF &lt;br&gt;UPDATE REQUEST FOR CONTACT" style="rounded=0;whiteSpace=wrap;html=1;fontStyle=1;strokeWidth=2;fontSize=11;shape=rhombus;perimeter=rhombusPerimeter;" parent="1" vertex="1">
          <mxGeometry x="3751.88" y="1652.75" width="120" height="90" as="geometry" />
        </mxCell>
        <mxCell id="bOGRKbOoEIt-_d6ExcWd-54" value="&lt;font style=&quot;font-size: 9px;&quot;&gt;UPDATE VERIFICATION &lt;br&gt;STATUS: SUCCESS&lt;/font&gt;" style="edgeStyle=orthogonalEdgeStyle;rounded=0;orthogonalLoop=1;jettySize=auto;html=1;exitX=0;exitY=0;exitDx=0;exitDy=0;strokeColor=#00CC00;strokeWidth=2;fontStyle=1;startArrow=classic;startFill=1;entryX=0.635;entryY=0.002;entryDx=0;entryDy=0;entryPerimeter=0;jumpStyle=arc;jumpSize=11;" parent="1" source="bOGRKbOoEIt-_d6ExcWd-46" target="_2NASYxuOexbDyS9MmBw-56" edge="1">
          <mxGeometry x="-0.0301" y="-17" relative="1" as="geometry">
            <mxPoint as="offset" />
            <mxPoint x="3516" y="1643.013" as="targetPoint" />
          </mxGeometry>
        </mxCell>
        <mxCell id="bOGRKbOoEIt-_d6ExcWd-57" style="edgeStyle=orthogonalEdgeStyle;rounded=0;orthogonalLoop=1;jettySize=auto;html=1;exitX=1;exitY=0.5;exitDx=0;exitDy=0;strokeColor=#00CC00;strokeWidth=2;fontStyle=1;" parent="1" source="bOGRKbOoEIt-_d6ExcWd-46" target="bOGRKbOoEIt-_d6ExcWd-56" edge="1">
          <mxGeometry relative="1" as="geometry" />
        </mxCell>
        <mxCell id="bOGRKbOoEIt-_d6ExcWd-61" style="edgeStyle=orthogonalEdgeStyle;rounded=0;orthogonalLoop=1;jettySize=auto;html=1;exitX=0.5;exitY=1;exitDx=0;exitDy=0;entryX=0.75;entryY=1;entryDx=0;entryDy=0;strokeColor=#FF2617;strokeWidth=2;fontStyle=1;" parent="1" source="bOGRKbOoEIt-_d6ExcWd-46" target="bOGRKbOoEIt-_d6ExcWd-56" edge="1">
          <mxGeometry relative="1" as="geometry">
            <Array as="points">
              <mxPoint x="3744.88" y="1617" />
              <mxPoint x="3875.88" y="1617" />
            </Array>
          </mxGeometry>
        </mxCell>
        <mxCell id="bOGRKbOoEIt-_d6ExcWd-46" value="IF&lt;br&gt;POI/POA/POR&lt;br&gt;&amp;nbsp;VERIFICATION SUCCESS" style="rounded=0;whiteSpace=wrap;html=1;fontStyle=1;strokeWidth=2;fontSize=11;shape=rhombus;perimeter=rhombusPerimeter;" parent="1" vertex="1">
          <mxGeometry x="3676.88" y="1540" width="135" height="70" as="geometry" />
        </mxCell>
        <mxCell id="bOGRKbOoEIt-_d6ExcWd-62" style="edgeStyle=orthogonalEdgeStyle;rounded=0;orthogonalLoop=1;jettySize=auto;html=1;exitX=0.5;exitY=0;exitDx=0;exitDy=0;strokeColor=#00CC00;strokeWidth=2;fontStyle=1;" parent="1" source="bOGRKbOoEIt-_d6ExcWd-56" target="8j6VqZWyWBpULk93ZD53-148" edge="1">
          <mxGeometry relative="1" as="geometry">
            <Array as="points">
              <mxPoint x="3842" y="140" />
              <mxPoint x="4487" y="140" />
            </Array>
          </mxGeometry>
        </mxCell>
        <mxCell id="bOGRKbOoEIt-_d6ExcWd-56" value="RECEIVE ADDRESS UPDATE SUCCESS/FAIL NOTIFICATION" style="rounded=0;whiteSpace=wrap;html=1;fontStyle=1;strokeWidth=2;fontSize=11;" parent="1" vertex="1">
          <mxGeometry x="3774.38" y="741" width="135" height="60" as="geometry" />
        </mxCell>
        <mxCell id="bOGRKbOoEIt-_d6ExcWd-77" style="edgeStyle=orthogonalEdgeStyle;rounded=0;orthogonalLoop=1;jettySize=auto;html=1;exitX=1;exitY=0.5;exitDx=0;exitDy=0;entryX=0.5;entryY=1;entryDx=0;entryDy=0;strokeColor=#00CC00;strokeWidth=2;fontStyle=1;" parent="1" source="bOGRKbOoEIt-_d6ExcWd-69" target="bOGRKbOoEIt-_d6ExcWd-76" edge="1">
          <mxGeometry relative="1" as="geometry" />
        </mxCell>
        <mxCell id="bOGRKbOoEIt-_d6ExcWd-78" style="edgeStyle=orthogonalEdgeStyle;rounded=0;orthogonalLoop=1;jettySize=auto;html=1;exitX=0.5;exitY=1;exitDx=0;exitDy=0;entryX=0.75;entryY=1;entryDx=0;entryDy=0;strokeColor=#FF2617;strokeWidth=2;fontStyle=1;" parent="1" source="bOGRKbOoEIt-_d6ExcWd-69" target="bOGRKbOoEIt-_d6ExcWd-76" edge="1">
          <mxGeometry relative="1" as="geometry" />
        </mxCell>
        <mxCell id="bOGRKbOoEIt-_d6ExcWd-69" value="IF OTP&lt;br&gt;&amp;nbsp;VERIFICATION SUCCESS" style="rounded=0;whiteSpace=wrap;html=1;fontStyle=1;strokeWidth=2;fontSize=11;shape=rhombus;perimeter=rhombusPerimeter;" parent="1" vertex="1">
          <mxGeometry x="4041.88" y="1548.75" width="135" height="60" as="geometry" />
        </mxCell>
        <mxCell id="bOGRKbOoEIt-_d6ExcWd-79" style="edgeStyle=orthogonalEdgeStyle;rounded=0;orthogonalLoop=1;jettySize=auto;html=1;exitX=0.5;exitY=0;exitDx=0;exitDy=0;strokeColor=#00CC00;strokeWidth=2;fontStyle=1;" parent="1" source="bOGRKbOoEIt-_d6ExcWd-76" target="8j6VqZWyWBpULk93ZD53-148" edge="1">
          <mxGeometry relative="1" as="geometry">
            <Array as="points">
              <mxPoint x="4196" y="160" />
              <mxPoint x="4487" y="160" />
            </Array>
          </mxGeometry>
        </mxCell>
        <mxCell id="bOGRKbOoEIt-_d6ExcWd-76" value="RECEIVE CONTACT UPDATE SUCCESS/FAIL NOTIFICATION" style="rounded=0;whiteSpace=wrap;html=1;fontStyle=1;strokeWidth=2;fontSize=11;" parent="1" vertex="1">
          <mxGeometry x="4128.88" y="741" width="135" height="60" as="geometry" />
        </mxCell>
        <mxCell id="bOGRKbOoEIt-_d6ExcWd-82" style="edgeStyle=orthogonalEdgeStyle;rounded=0;orthogonalLoop=1;jettySize=auto;html=1;exitX=0.5;exitY=0;exitDx=0;exitDy=0;strokeColor=#00CC00;strokeWidth=2;fontStyle=1;" parent="1" source="bOGRKbOoEIt-_d6ExcWd-80" target="8j6VqZWyWBpULk93ZD53-148" edge="1">
          <mxGeometry relative="1" as="geometry">
            <Array as="points">
              <mxPoint x="4354" y="180" />
              <mxPoint x="4487" y="180" />
            </Array>
          </mxGeometry>
        </mxCell>
        <mxCell id="bOGRKbOoEIt-_d6ExcWd-80" value="RECEIVE UIN ACCOUNT LOCKED FOR 24 HOURS NOTIFICATION WITH FURTHER CONTACT FOR SUPPORT" style="rounded=0;whiteSpace=wrap;html=1;fontStyle=1;strokeWidth=2;fontSize=11;" parent="1" vertex="1">
          <mxGeometry x="4286.88" y="727" width="135" height="74" as="geometry" />
        </mxCell>
        <mxCell id="bOGRKbOoEIt-_d6ExcWd-83" value="NOTIFICATION GENERATOR" style="rounded=0;whiteSpace=wrap;html=1;fontStyle=1;strokeWidth=2;fontSize=11;fillColor=default;strokeColor=default;" parent="1" vertex="1">
          <mxGeometry x="3781.88" y="1477" width="160" height="30" as="geometry" />
        </mxCell>
        <mxCell id="bOGRKbOoEIt-_d6ExcWd-84" value="NOTIFICATION GENERATOR" style="rounded=0;whiteSpace=wrap;html=1;fontStyle=1;strokeWidth=2;fontSize=11;fillColor=default;strokeColor=default;" parent="1" vertex="1">
          <mxGeometry x="4171.88" y="1477" width="198.12" height="30" as="geometry" />
        </mxCell>
        <mxCell id="7tuzjf_FMRFctLIPeL2Y-1" style="edgeStyle=orthogonalEdgeStyle;rounded=0;orthogonalLoop=1;jettySize=auto;html=1;exitX=0.5;exitY=1;exitDx=0;exitDy=0;entryX=0.5;entryY=0;entryDx=0;entryDy=0;strokeColor=#00CC00;fillColor=default;strokeWidth=2;fontStyle=1;" parent="1" source="1QNBcFhWnPDnwraU3d0_-2" target="1QNBcFhWnPDnwraU3d0_-5" edge="1">
          <mxGeometry relative="1" as="geometry" />
        </mxCell>
        <mxCell id="1QNBcFhWnPDnwraU3d0_-2" value="VISIT DID/3RD PARTY CENTRE" style="rounded=0;whiteSpace=wrap;html=1;fontStyle=1;strokeWidth=2;fontSize=11;" parent="1" vertex="1">
          <mxGeometry x="2260" y="223.5" width="90" height="35" as="geometry" />
        </mxCell>
        <mxCell id="_2NASYxuOexbDyS9MmBw-15" style="edgeStyle=orthogonalEdgeStyle;rounded=0;orthogonalLoop=1;jettySize=auto;html=1;exitX=1;exitY=0.5;exitDx=0;exitDy=0;entryX=0;entryY=0.5;entryDx=0;entryDy=0;strokeColor=#00CC00;fillColor=default;strokeWidth=2;fontStyle=1;" parent="1" source="1QNBcFhWnPDnwraU3d0_-5" target="7tuzjf_FMRFctLIPeL2Y-2" edge="1">
          <mxGeometry relative="1" as="geometry">
            <Array as="points">
              <mxPoint x="2370" y="315" />
              <mxPoint x="2370" y="184" />
            </Array>
          </mxGeometry>
        </mxCell>
        <mxCell id="1QNBcFhWnPDnwraU3d0_-5" value="COLLECTS UPDATE &lt;u&gt;FORM&lt;/u&gt;" style="rounded=0;whiteSpace=wrap;html=1;fontStyle=1;strokeWidth=2;fontSize=11;" parent="1" vertex="1">
          <mxGeometry x="2260" y="295.5" width="90" height="39.5" as="geometry" />
        </mxCell>
        <mxCell id="_2NASYxuOexbDyS9MmBw-18" style="edgeStyle=orthogonalEdgeStyle;rounded=0;orthogonalLoop=1;jettySize=auto;html=1;exitX=1;exitY=0.5;exitDx=0;exitDy=0;entryX=0;entryY=0.5;entryDx=0;entryDy=0;strokeColor=#00CC00;fillColor=default;strokeWidth=2;fontStyle=1;" parent="1" source="7tuzjf_FMRFctLIPeL2Y-2" target="_2NASYxuOexbDyS9MmBw-17" edge="1">
          <mxGeometry relative="1" as="geometry" />
        </mxCell>
        <mxCell id="7tuzjf_FMRFctLIPeL2Y-2" value="FILL FORM WITH UIN, &lt;br&gt;AND DETAILS TO BE UPDATED FOR:&lt;br&gt;1. ADDRESS&lt;br&gt;2. EMAIL/PHONE&lt;br&gt;3. NAME&lt;br&gt;4. D.O.B" style="shape=parallelogram;perimeter=parallelogramPerimeter;whiteSpace=wrap;html=1;fixedSize=1;fontSize=11;rounded=0;fontStyle=1;strokeWidth=2;" parent="1" vertex="1">
          <mxGeometry x="2420" y="123.5" width="160" height="120" as="geometry" />
        </mxCell>
        <mxCell id="_2NASYxuOexbDyS9MmBw-8" value="" style="edgeStyle=orthogonalEdgeStyle;rounded=0;orthogonalLoop=1;jettySize=auto;html=1;strokeColor=#00CC00;fillColor=default;strokeWidth=2;fontStyle=1;" parent="1" source="_2NASYxuOexbDyS9MmBw-1" target="1QNBcFhWnPDnwraU3d0_-2" edge="1">
          <mxGeometry relative="1" as="geometry" />
        </mxCell>
        <mxCell id="_2NASYxuOexbDyS9MmBw-1" value="IF &lt;br&gt;&amp;gt;16 YEARS &lt;br&gt;OLD" style="rounded=0;whiteSpace=wrap;html=1;fontStyle=1;strokeWidth=2;fontSize=11;shape=rhombus;perimeter=rhombusPerimeter;" parent="1" vertex="1">
          <mxGeometry x="2123" y="206.5" width="105" height="70.19" as="geometry" />
        </mxCell>
        <mxCell id="_2NASYxuOexbDyS9MmBw-4" value="PARENT / GUARDIAN / &lt;br&gt;INTRODUCER" style="text;html=1;align=center;verticalAlign=middle;resizable=0;points=[];autosize=1;strokeColor=none;fillColor=none;fontStyle=1;fontSize=23;strokeWidth=2;horizontal=0;" parent="1" vertex="1">
          <mxGeometry x="1963" y="485" width="80" height="260" as="geometry" />
        </mxCell>
        <mxCell id="_2NASYxuOexbDyS9MmBw-5" value="P/G/I" style="shape=umlActor;verticalLabelPosition=bottom;verticalAlign=top;html=1;outlineConnect=0;fontStyle=1" parent="1" vertex="1">
          <mxGeometry x="2053" y="570" width="30" height="60" as="geometry" />
        </mxCell>
        <mxCell id="_2NASYxuOexbDyS9MmBw-11" value="" style="edgeStyle=orthogonalEdgeStyle;rounded=0;orthogonalLoop=1;jettySize=auto;html=1;strokeColor=#00CC00;fillColor=default;strokeWidth=2;fontStyle=1;" parent="1" source="_2NASYxuOexbDyS9MmBw-2" target="_2NASYxuOexbDyS9MmBw-10" edge="1">
          <mxGeometry relative="1" as="geometry" />
        </mxCell>
        <mxCell id="_2NASYxuOexbDyS9MmBw-2" value="IF WITH P/G/I" style="rounded=0;whiteSpace=wrap;html=1;fontStyle=1;strokeWidth=2;fontSize=11;shape=rhombus;perimeter=rhombusPerimeter;" parent="1" vertex="1">
          <mxGeometry x="2130.5" y="579" width="90" height="72" as="geometry" />
        </mxCell>
        <mxCell id="_2NASYxuOexbDyS9MmBw-6" style="edgeStyle=orthogonalEdgeStyle;rounded=0;orthogonalLoop=1;jettySize=auto;html=1;exitX=0.5;exitY=1;exitDx=0;exitDy=0;entryX=0.5;entryY=0;entryDx=0;entryDy=0;strokeColor=#FF3300;fillColor=default;strokeWidth=2;fontStyle=1;" parent="1" source="_2NASYxuOexbDyS9MmBw-1" target="_2NASYxuOexbDyS9MmBw-2" edge="1">
          <mxGeometry relative="1" as="geometry" />
        </mxCell>
        <mxCell id="_2NASYxuOexbDyS9MmBw-9" value="COLLECTS UPDATE &lt;u&gt;FORM&lt;/u&gt;" style="rounded=0;whiteSpace=wrap;html=1;fontStyle=1;strokeWidth=2;fontSize=11;" parent="1" vertex="1">
          <mxGeometry x="2250" y="672" width="90" height="39.5" as="geometry" />
        </mxCell>
        <mxCell id="_2NASYxuOexbDyS9MmBw-12" value="" style="edgeStyle=orthogonalEdgeStyle;rounded=0;orthogonalLoop=1;jettySize=auto;html=1;strokeColor=#00CC00;fillColor=default;strokeWidth=2;fontStyle=1;" parent="1" source="_2NASYxuOexbDyS9MmBw-10" target="_2NASYxuOexbDyS9MmBw-9" edge="1">
          <mxGeometry relative="1" as="geometry" />
        </mxCell>
        <mxCell id="_2NASYxuOexbDyS9MmBw-10" value="VISIT DID/3RD PARTY CENTRE" style="rounded=0;whiteSpace=wrap;html=1;fontStyle=1;strokeWidth=2;fontSize=11;" parent="1" vertex="1">
          <mxGeometry x="2250" y="598" width="90" height="35" as="geometry" />
        </mxCell>
        <mxCell id="_2NASYxuOexbDyS9MmBw-22" value="" style="edgeStyle=orthogonalEdgeStyle;rounded=0;orthogonalLoop=1;jettySize=auto;html=1;strokeColor=#00CC00;fillColor=default;strokeWidth=2;fontStyle=1;" parent="1" source="_2NASYxuOexbDyS9MmBw-13" target="_2NASYxuOexbDyS9MmBw-21" edge="1">
          <mxGeometry relative="1" as="geometry" />
        </mxCell>
        <mxCell id="_2NASYxuOexbDyS9MmBw-13" value="FILL FORM WITH UIN,&lt;br&gt;&amp;nbsp;AND DETAILS TO BE UPDATED FOR:&lt;br&gt;1. ADDRESS&lt;br&gt;2. EMAIL/PHONE&lt;br&gt;3. NAME&lt;br&gt;4. D.O.B" style="shape=parallelogram;perimeter=parallelogramPerimeter;whiteSpace=wrap;html=1;fixedSize=1;fontSize=11;rounded=0;fontStyle=1;strokeWidth=2;" parent="1" vertex="1">
          <mxGeometry x="2415" y="460" width="160" height="120" as="geometry" />
        </mxCell>
        <mxCell id="_2NASYxuOexbDyS9MmBw-20" style="edgeStyle=orthogonalEdgeStyle;rounded=0;orthogonalLoop=1;jettySize=auto;html=1;exitX=1;exitY=0.5;exitDx=0;exitDy=0;entryX=0;entryY=0.5;entryDx=0;entryDy=0;strokeColor=#00CC00;fillColor=default;strokeWidth=2;fontStyle=1;" parent="1" source="_2NASYxuOexbDyS9MmBw-17" target="_2NASYxuOexbDyS9MmBw-19" edge="1">
          <mxGeometry relative="1" as="geometry" />
        </mxCell>
        <mxCell id="_2NASYxuOexbDyS9MmBw-27" style="edgeStyle=orthogonalEdgeStyle;rounded=0;orthogonalLoop=1;jettySize=auto;html=1;exitX=0.5;exitY=1;exitDx=0;exitDy=0;entryX=0.5;entryY=0;entryDx=0;entryDy=0;strokeColor=#FF3300;fillColor=default;strokeWidth=2;fontStyle=1;" parent="1" source="_2NASYxuOexbDyS9MmBw-17" target="_2NASYxuOexbDyS9MmBw-26" edge="1">
          <mxGeometry relative="1" as="geometry" />
        </mxCell>
        <mxCell id="_2NASYxuOexbDyS9MmBw-17" value="IF &lt;br&gt;SUPPORTING DOCUMENTS AVAILABLE" style="rounded=0;whiteSpace=wrap;html=1;fontStyle=1;strokeWidth=2;fontSize=11;shape=rhombus;perimeter=rhombusPerimeter;" parent="1" vertex="1">
          <mxGeometry x="2611" y="137.25" width="130" height="92.5" as="geometry" />
        </mxCell>
        <mxCell id="_2NASYxuOexbDyS9MmBw-33" style="edgeStyle=orthogonalEdgeStyle;rounded=0;orthogonalLoop=1;jettySize=auto;html=1;exitX=0.5;exitY=1;exitDx=0;exitDy=0;strokeColor=#00CC00;fillColor=default;strokeWidth=2;fontStyle=1;" parent="1" source="_2NASYxuOexbDyS9MmBw-19" target="_2NASYxuOexbDyS9MmBw-30" edge="1">
          <mxGeometry relative="1" as="geometry" />
        </mxCell>
        <mxCell id="_2NASYxuOexbDyS9MmBw-19" value="ATTACH PHOTO COPY OF SUPPORTING DOCUMENTS AS BELOW:&lt;br&gt;&lt;br&gt;1. ADDRESS -&amp;gt;&amp;nbsp;&lt;u&gt;POA&lt;br&gt;&lt;/u&gt;3. NAME -&amp;gt; &lt;u&gt;POI&lt;br&gt;&lt;/u&gt;4. D.O.B -&amp;gt; &lt;u&gt;POI (WITH D.O.B)&lt;/u&gt;" style="rounded=0;whiteSpace=wrap;html=1;fontStyle=1;strokeWidth=2;fontSize=11;" parent="1" vertex="1">
          <mxGeometry x="2820" y="127.75" width="140" height="110" as="geometry" />
        </mxCell>
        <mxCell id="_2NASYxuOexbDyS9MmBw-25" style="edgeStyle=orthogonalEdgeStyle;rounded=0;orthogonalLoop=1;jettySize=auto;html=1;exitX=0.5;exitY=1;exitDx=0;exitDy=0;entryX=0;entryY=0.5;entryDx=0;entryDy=0;strokeColor=#00CC00;fillColor=default;strokeWidth=2;fontStyle=1;" parent="1" source="_2NASYxuOexbDyS9MmBw-21" target="_2NASYxuOexbDyS9MmBw-23" edge="1">
          <mxGeometry relative="1" as="geometry">
            <Array as="points">
              <mxPoint x="2495" y="725" />
            </Array>
          </mxGeometry>
        </mxCell>
        <mxCell id="_2NASYxuOexbDyS9MmBw-28" style="edgeStyle=orthogonalEdgeStyle;rounded=0;orthogonalLoop=1;jettySize=auto;html=1;exitX=1;exitY=0.5;exitDx=0;exitDy=0;entryX=0;entryY=0.5;entryDx=0;entryDy=0;strokeColor=#FF3300;fillColor=default;strokeWidth=2;fontStyle=1;" parent="1" source="_2NASYxuOexbDyS9MmBw-21" target="_2NASYxuOexbDyS9MmBw-26" edge="1">
          <mxGeometry relative="1" as="geometry" />
        </mxCell>
        <mxCell id="_2NASYxuOexbDyS9MmBw-21" value="IF &lt;br&gt;SUPPORTING DOCUMENTS AVAILABLE" style="rounded=0;whiteSpace=wrap;html=1;fontStyle=1;strokeWidth=2;fontSize=11;shape=rhombus;perimeter=rhombusPerimeter;" parent="1" vertex="1">
          <mxGeometry x="2430" y="619" width="130" height="92.5" as="geometry" />
        </mxCell>
        <mxCell id="_2NASYxuOexbDyS9MmBw-35" style="edgeStyle=orthogonalEdgeStyle;rounded=0;orthogonalLoop=1;jettySize=auto;html=1;exitX=1;exitY=0.5;exitDx=0;exitDy=0;entryX=0;entryY=0.5;entryDx=0;entryDy=0;strokeColor=#00CC00;fillColor=default;strokeWidth=2;fontStyle=1;" parent="1" source="_2NASYxuOexbDyS9MmBw-23" target="_2NASYxuOexbDyS9MmBw-31" edge="1">
          <mxGeometry relative="1" as="geometry" />
        </mxCell>
        <mxCell id="_2NASYxuOexbDyS9MmBw-23" value="ATTACH PHOTO COPY OF SUBSCRIBER&#39;S SUPPORTING DOCUMENTS AS BELOW:&lt;br&gt;&lt;br&gt;1. ADDRESS -&amp;gt;&amp;nbsp;&lt;u&gt;POA&lt;br&gt;&lt;/u&gt;3. NAME -&amp;gt; &lt;u&gt;POI&lt;br&gt;&lt;/u&gt;4. D.O.B -&amp;gt; &lt;u&gt;POI (WITH D.O.B)&lt;/u&gt;&lt;br&gt;&lt;br&gt;P/Gs UIN AND POR" style="rounded=0;whiteSpace=wrap;html=1;fontStyle=1;strokeWidth=2;fontSize=11;" parent="1" vertex="1">
          <mxGeometry x="2600" y="660" width="180" height="130" as="geometry" />
        </mxCell>
        <mxCell id="_2NASYxuOexbDyS9MmBw-34" style="edgeStyle=orthogonalEdgeStyle;rounded=0;orthogonalLoop=1;jettySize=auto;html=1;exitX=1;exitY=0.5;exitDx=0;exitDy=0;entryX=0;entryY=0.5;entryDx=0;entryDy=0;strokeColor=#00CC00;fillColor=default;strokeWidth=2;fontStyle=1;" parent="1" source="_2NASYxuOexbDyS9MmBw-26" target="_2NASYxuOexbDyS9MmBw-32" edge="1">
          <mxGeometry relative="1" as="geometry" />
        </mxCell>
        <mxCell id="_2NASYxuOexbDyS9MmBw-26" value="ATTACH PHOTO COPY OF&amp;nbsp;&amp;nbsp;&lt;br&gt;POR (SIGNED BY INTRODUCER WITH SUBSCRIBER&#39;s CLAIMED DETAILS)" style="rounded=0;whiteSpace=wrap;html=1;fontStyle=1;strokeWidth=2;fontSize=11;" parent="1" vertex="1">
          <mxGeometry x="2611" y="479" width="130" height="90" as="geometry" />
        </mxCell>
        <mxCell id="_2NASYxuOexbDyS9MmBw-64" style="edgeStyle=orthogonalEdgeStyle;rounded=0;orthogonalLoop=1;jettySize=auto;html=1;exitX=0.5;exitY=1;exitDx=0;exitDy=0;entryX=0.5;entryY=0;entryDx=0;entryDy=0;strokeColor=#00CC00;fillColor=default;strokeWidth=2;fontStyle=1;" parent="1" source="_2NASYxuOexbDyS9MmBw-29" target="_2NASYxuOexbDyS9MmBw-63" edge="1">
          <mxGeometry relative="1" as="geometry" />
        </mxCell>
        <mxCell id="_2NASYxuOexbDyS9MmBw-29" value="RECEIVES FILLED UPRADE AND AMEND FORM WITH SUPPORTING DOCUMENTS" style="rounded=0;whiteSpace=wrap;html=1;fontStyle=1;strokeWidth=2;fontSize=11;" parent="1" vertex="1">
          <mxGeometry x="2930" y="866" width="110" height="73" as="geometry" />
        </mxCell>
        <mxCell id="_2NASYxuOexbDyS9MmBw-38" style="edgeStyle=orthogonalEdgeStyle;rounded=0;orthogonalLoop=1;jettySize=auto;html=1;exitX=1;exitY=0.25;exitDx=0;exitDy=0;strokeColor=#00CC00;fillColor=default;strokeWidth=2;fontStyle=1;" parent="1" source="_2NASYxuOexbDyS9MmBw-30" target="_2NASYxuOexbDyS9MmBw-29" edge="1">
          <mxGeometry relative="1" as="geometry" />
        </mxCell>
        <mxCell id="_2NASYxuOexbDyS9MmBw-30" value="CONFIRMS DETAILS &amp;amp; SIGNS THE DOCUMENT/THUMB PRINT" style="rounded=0;whiteSpace=wrap;html=1;fontStyle=1;strokeWidth=2;" parent="1" vertex="1">
          <mxGeometry x="2825" y="295.5" width="130" height="60" as="geometry" />
        </mxCell>
        <mxCell id="_2NASYxuOexbDyS9MmBw-36" style="edgeStyle=orthogonalEdgeStyle;rounded=0;orthogonalLoop=1;jettySize=auto;html=1;exitX=1;exitY=0.5;exitDx=0;exitDy=0;entryX=0.5;entryY=0;entryDx=0;entryDy=0;strokeColor=#00CC00;fillColor=default;strokeWidth=2;fontStyle=1;" parent="1" source="_2NASYxuOexbDyS9MmBw-31" target="_2NASYxuOexbDyS9MmBw-29" edge="1">
          <mxGeometry relative="1" as="geometry" />
        </mxCell>
        <mxCell id="_2NASYxuOexbDyS9MmBw-31" value="CONFIRMS DETAILS &amp;amp; P/G SIGNS THE DOCUMENT/THUMB PRINT" style="rounded=0;whiteSpace=wrap;html=1;fontStyle=1;strokeWidth=2;" parent="1" vertex="1">
          <mxGeometry x="2830" y="695" width="130" height="60" as="geometry" />
        </mxCell>
        <mxCell id="_2NASYxuOexbDyS9MmBw-37" style="edgeStyle=orthogonalEdgeStyle;rounded=0;orthogonalLoop=1;jettySize=auto;html=1;exitX=1;exitY=0.5;exitDx=0;exitDy=0;strokeColor=#00CC00;fillColor=default;strokeWidth=2;fontStyle=1;" parent="1" source="_2NASYxuOexbDyS9MmBw-32" target="_2NASYxuOexbDyS9MmBw-29" edge="1">
          <mxGeometry relative="1" as="geometry" />
        </mxCell>
        <mxCell id="_2NASYxuOexbDyS9MmBw-32" value="CONFIRMS DETAILS &amp;amp; INTRODUCER SIGNS THE DOCUMENT/THUMB PRINT" style="rounded=0;whiteSpace=wrap;html=1;fontStyle=1;strokeWidth=2;" parent="1" vertex="1">
          <mxGeometry x="2830" y="479" width="130" height="90" as="geometry" />
        </mxCell>
        <mxCell id="_2NASYxuOexbDyS9MmBw-42" style="edgeStyle=orthogonalEdgeStyle;rounded=0;orthogonalLoop=1;jettySize=auto;html=1;exitX=0.5;exitY=1;exitDx=0;exitDy=0;entryX=0.5;entryY=0;entryDx=0;entryDy=0;strokeColor=#00CC00;fillColor=default;strokeWidth=2;fontStyle=1;" parent="1" source="_2NASYxuOexbDyS9MmBw-39" target="_2NASYxuOexbDyS9MmBw-41" edge="1">
          <mxGeometry relative="1" as="geometry" />
        </mxCell>
        <mxCell id="_2NASYxuOexbDyS9MmBw-44" style="edgeStyle=orthogonalEdgeStyle;rounded=0;orthogonalLoop=1;jettySize=auto;html=1;exitX=0.5;exitY=0;exitDx=0;exitDy=0;entryX=1;entryY=0.5;entryDx=0;entryDy=0;strokeColor=#FF3300;fillColor=default;strokeWidth=2;fontStyle=1;" parent="1" source="_2NASYxuOexbDyS9MmBw-39" target="_2NASYxuOexbDyS9MmBw-19" edge="1">
          <mxGeometry relative="1" as="geometry" />
        </mxCell>
        <mxCell id="_2NASYxuOexbDyS9MmBw-39" value="IF &lt;br&gt;NECESSARY SUPPORTING DOCUMENTS &lt;br&gt;PROVIDED" style="rhombus;whiteSpace=wrap;html=1;fontSize=11;rounded=0;fontStyle=1;strokeWidth=2;" parent="1" vertex="1">
          <mxGeometry x="3431" y="856" width="140" height="93" as="geometry" />
        </mxCell>
        <mxCell id="_2NASYxuOexbDyS9MmBw-47" style="edgeStyle=orthogonalEdgeStyle;rounded=0;orthogonalLoop=1;jettySize=auto;html=1;exitX=0.5;exitY=1;exitDx=0;exitDy=0;entryX=0.5;entryY=0;entryDx=0;entryDy=0;strokeColor=#00CC00;fillColor=default;strokeWidth=2;fontStyle=1;" parent="1" source="_2NASYxuOexbDyS9MmBw-41" target="RXy6DamFLEHfM2ugey37-38" edge="1">
          <mxGeometry relative="1" as="geometry" />
        </mxCell>
        <mxCell id="_2NASYxuOexbDyS9MmBw-41" value="SCAN &amp;amp; UPLOAD FILLED FORM AND SUPPORTING DOCUMENTS TO DID PORTAL" style="rounded=0;whiteSpace=wrap;html=1;fontStyle=1;strokeWidth=2;fontSize=11;" parent="1" vertex="1">
          <mxGeometry x="3446" y="968.86" width="110" height="73" as="geometry" />
        </mxCell>
        <mxCell id="_2NASYxuOexbDyS9MmBw-56" value="&lt;u&gt;SUBSCRIBER UIN ACCOUNT:&amp;nbsp;&lt;/u&gt;STORE USER ENTERED ATTRIBUTE DETAILS AND VERIFICATION STATUS" style="rounded=0;whiteSpace=wrap;html=1;fontSize=11;fontStyle=1;strokeWidth=2;" parent="1" vertex="1">
          <mxGeometry x="3440" y="1650" width="120" height="100" as="geometry" />
        </mxCell>
        <mxCell id="_2NASYxuOexbDyS9MmBw-57" value="HSM" style="ellipse;whiteSpace=wrap;html=1;fillColor=#dae8fc;strokeColor=#6c8ebf;gradientColor=#7ea6e0;fontStyle=1" parent="1" vertex="1">
          <mxGeometry x="3410" y="1720.88" width="30" height="26" as="geometry" />
        </mxCell>
        <mxCell id="_2NASYxuOexbDyS9MmBw-58" value="KM" style="ellipse;whiteSpace=wrap;html=1;fillColor=#dae8fc;strokeColor=#6c8ebf;gradientColor=#7ea6e0;fontStyle=1" parent="1" vertex="1">
          <mxGeometry x="3410" y="1684.5" width="30" height="26" as="geometry" />
        </mxCell>
        <mxCell id="_2NASYxuOexbDyS9MmBw-59" style="edgeStyle=orthogonalEdgeStyle;rounded=0;orthogonalLoop=1;jettySize=auto;html=1;exitX=0.5;exitY=1;exitDx=0;exitDy=0;strokeColor=#00CC00;fillColor=default;strokeWidth=2;fontStyle=1;" parent="1" source="RXy6DamFLEHfM2ugey37-34" target="_2NASYxuOexbDyS9MmBw-56" edge="1">
          <mxGeometry relative="1" as="geometry">
            <Array as="points">
              <mxPoint x="3500" y="1490" />
              <mxPoint x="3501" y="1490" />
            </Array>
          </mxGeometry>
        </mxCell>
        <mxCell id="_2NASYxuOexbDyS9MmBw-69" style="edgeStyle=orthogonalEdgeStyle;rounded=0;orthogonalLoop=1;jettySize=auto;html=1;exitX=0.5;exitY=1;exitDx=0;exitDy=0;strokeColor=#00CC00;fillColor=default;strokeWidth=2;fontStyle=1;entryX=0.5;entryY=0;entryDx=0;entryDy=0;" parent="1" source="_2NASYxuOexbDyS9MmBw-74" target="_2NASYxuOexbDyS9MmBw-70" edge="1">
          <mxGeometry relative="1" as="geometry">
            <Array as="points">
              <mxPoint x="2985" y="1280" />
              <mxPoint x="2905" y="1280" />
            </Array>
          </mxGeometry>
        </mxCell>
        <mxCell id="_2NASYxuOexbDyS9MmBw-63" value="CHECK IF SUBSCRIBER/ P/G/I UIN EXIST IN DATABASE" style="rounded=0;whiteSpace=wrap;html=1;fontSize=11;fontStyle=1;strokeWidth=2;" parent="1" vertex="1">
          <mxGeometry x="2935" y="969.86" width="100" height="72" as="geometry" />
        </mxCell>
        <mxCell id="_2NASYxuOexbDyS9MmBw-72" style="edgeStyle=orthogonalEdgeStyle;rounded=0;orthogonalLoop=1;jettySize=auto;html=1;exitX=1;exitY=0.5;exitDx=0;exitDy=0;exitPerimeter=0;entryX=0;entryY=0.5;entryDx=0;entryDy=0;strokeColor=#00CC00;fillColor=default;strokeWidth=2;fontStyle=1;startArrow=classic;startFill=1;" parent="1" source="_2NASYxuOexbDyS9MmBw-65" target="_2NASYxuOexbDyS9MmBw-70" edge="1">
          <mxGeometry relative="1" as="geometry" />
        </mxCell>
        <mxCell id="_2NASYxuOexbDyS9MmBw-65" value="DID USER DATABASE" style="rounded=0;whiteSpace=wrap;html=1;fontSize=11;fontStyle=1;strokeWidth=2;" parent="1" vertex="1">
          <mxGeometry x="2690" y="1490" width="120" height="50" as="geometry" />
        </mxCell>
        <mxCell id="_2NASYxuOexbDyS9MmBw-66" value="KM" style="ellipse;whiteSpace=wrap;html=1;fillColor=#dae8fc;strokeColor=#6c8ebf;gradientColor=#7ea6e0;fontStyle=1" parent="1" vertex="1">
          <mxGeometry x="2660" y="1487.5" width="30" height="26" as="geometry" />
        </mxCell>
        <mxCell id="_2NASYxuOexbDyS9MmBw-67" value="HSM" style="ellipse;whiteSpace=wrap;html=1;fillColor=#dae8fc;strokeColor=#6c8ebf;gradientColor=#7ea6e0;fontStyle=1" parent="1" vertex="1">
          <mxGeometry x="2660" y="1516.5" width="30" height="26" as="geometry" />
        </mxCell>
        <mxCell id="_2NASYxuOexbDyS9MmBw-68" value="IDA" style="ellipse;whiteSpace=wrap;html=1;fillColor=#dae8fc;strokeColor=#6c8ebf;gradientColor=#7ea6e0;fontStyle=1" parent="1" vertex="1">
          <mxGeometry x="2690" y="1461.5" width="30" height="26" as="geometry" />
        </mxCell>
        <mxCell id="_2NASYxuOexbDyS9MmBw-79" value="RESET &lt;br&gt;COUNTER" style="edgeStyle=orthogonalEdgeStyle;rounded=0;orthogonalLoop=1;jettySize=auto;html=1;exitX=1;exitY=0.5;exitDx=0;exitDy=0;entryX=0.5;entryY=1;entryDx=0;entryDy=0;strokeColor=#00CC00;fillColor=default;strokeWidth=2;fontStyle=1;" parent="1" source="_2NASYxuOexbDyS9MmBw-70" target="_2NASYxuOexbDyS9MmBw-120" edge="1">
          <mxGeometry x="-0.8852" relative="1" as="geometry">
            <Array as="points">
              <mxPoint x="3106" y="1515" />
            </Array>
            <mxPoint as="offset" />
          </mxGeometry>
        </mxCell>
        <mxCell id="_2NASYxuOexbDyS9MmBw-83" style="edgeStyle=orthogonalEdgeStyle;rounded=0;orthogonalLoop=1;jettySize=auto;html=1;exitX=0.5;exitY=1;exitDx=0;exitDy=0;strokeColor=#FF3300;fillColor=default;strokeWidth=2;fontStyle=1;entryX=0.582;entryY=-0.014;entryDx=0;entryDy=0;entryPerimeter=0;" parent="1" source="_2NASYxuOexbDyS9MmBw-70" target="_2NASYxuOexbDyS9MmBw-82" edge="1">
          <mxGeometry relative="1" as="geometry" />
        </mxCell>
        <mxCell id="_2NASYxuOexbDyS9MmBw-70" value="IF &lt;br&gt;MATCH &lt;br&gt;FOUND" style="rhombus;whiteSpace=wrap;html=1;fontSize=11;rounded=0;fontStyle=1;strokeWidth=2;" parent="1" vertex="1">
          <mxGeometry x="2855" y="1479.19" width="100" height="72" as="geometry" />
        </mxCell>
        <mxCell id="_2NASYxuOexbDyS9MmBw-78" value="" style="edgeStyle=orthogonalEdgeStyle;rounded=0;orthogonalLoop=1;jettySize=auto;html=1;exitX=0.5;exitY=1;exitDx=0;exitDy=0;strokeColor=#00CC00;fillColor=default;strokeWidth=2;fontStyle=1;" parent="1" source="_2NASYxuOexbDyS9MmBw-63" target="_2NASYxuOexbDyS9MmBw-74" edge="1">
          <mxGeometry relative="1" as="geometry">
            <mxPoint x="2985" y="1042" as="sourcePoint" />
            <mxPoint x="2750" y="1480" as="targetPoint" />
          </mxGeometry>
        </mxCell>
        <mxCell id="_2NASYxuOexbDyS9MmBw-74" value="MASK &amp;amp; ENCRYPT REQUESTED&amp;nbsp; CHANGE OF ADDRESS AND POA SCAN COPY" style="rounded=0;whiteSpace=wrap;html=1;fontStyle=1;strokeWidth=2;fontSize=11;movable=1;resizable=1;rotatable=1;deletable=1;editable=1;locked=0;connectable=1;" parent="1" vertex="1">
          <mxGeometry x="2930" y="1174.37" width="110" height="69.25" as="geometry" />
        </mxCell>
        <mxCell id="_2NASYxuOexbDyS9MmBw-75" value="KM" style="ellipse;whiteSpace=wrap;html=1;fillColor=#dae8fc;strokeColor=#6c8ebf;gradientColor=#7ea6e0;fontStyle=1;movable=1;resizable=1;rotatable=1;deletable=1;editable=1;locked=0;connectable=1;" parent="1" vertex="1">
          <mxGeometry x="2900" y="1170" width="30" height="26" as="geometry" />
        </mxCell>
        <mxCell id="_2NASYxuOexbDyS9MmBw-76" value="HSM" style="ellipse;whiteSpace=wrap;html=1;fillColor=#dae8fc;strokeColor=#6c8ebf;gradientColor=#7ea6e0;fontStyle=1;movable=1;resizable=1;rotatable=1;deletable=1;editable=1;locked=0;connectable=1;" parent="1" vertex="1">
          <mxGeometry x="2900" y="1196" width="30" height="26" as="geometry" />
        </mxCell>
        <mxCell id="_2NASYxuOexbDyS9MmBw-77" value="CA" style="ellipse;whiteSpace=wrap;html=1;fillColor=#dae8fc;strokeColor=#6c8ebf;gradientColor=#7ea6e0;fontStyle=1;movable=1;resizable=1;rotatable=1;deletable=1;editable=1;locked=0;connectable=1;" parent="1" vertex="1">
          <mxGeometry x="2900" y="1222" width="30" height="26" as="geometry" />
        </mxCell>
        <mxCell id="_2NASYxuOexbDyS9MmBw-84" style="edgeStyle=orthogonalEdgeStyle;rounded=0;orthogonalLoop=1;jettySize=auto;html=1;exitX=0;exitY=0.5;exitDx=0;exitDy=0;entryX=0;entryY=0.75;entryDx=0;entryDy=0;strokeColor=#00CC00;fillColor=default;strokeWidth=2;fontStyle=1;" parent="1" source="_2NASYxuOexbDyS9MmBw-80" target="7tuzjf_FMRFctLIPeL2Y-2" edge="1">
          <mxGeometry relative="1" as="geometry">
            <Array as="points">
              <mxPoint x="2400" y="1734" />
              <mxPoint x="2400" y="212" />
            </Array>
          </mxGeometry>
        </mxCell>
        <mxCell id="_2NASYxuOexbDyS9MmBw-85" style="edgeStyle=orthogonalEdgeStyle;rounded=0;orthogonalLoop=1;jettySize=auto;html=1;exitX=0;exitY=0.5;exitDx=0;exitDy=0;entryX=0;entryY=0.75;entryDx=0;entryDy=0;strokeColor=#00CC00;fillColor=default;strokeWidth=2;fontStyle=1;" parent="1" source="_2NASYxuOexbDyS9MmBw-80" target="_2NASYxuOexbDyS9MmBw-13" edge="1">
          <mxGeometry relative="1" as="geometry">
            <Array as="points">
              <mxPoint x="2400" y="1734" />
              <mxPoint x="2400" y="548" />
            </Array>
          </mxGeometry>
        </mxCell>
        <mxCell id="_2NASYxuOexbDyS9MmBw-108" style="edgeStyle=orthogonalEdgeStyle;rounded=0;orthogonalLoop=1;jettySize=auto;html=1;exitX=0.5;exitY=1;exitDx=0;exitDy=0;entryX=0;entryY=0.5;entryDx=0;entryDy=0;entryPerimeter=0;strokeColor=#FF3300;fillColor=default;strokeWidth=2;fontStyle=1;" parent="1" source="_2NASYxuOexbDyS9MmBw-80" target="RXy6DamFLEHfM2ugey37-26" edge="1">
          <mxGeometry relative="1" as="geometry" />
        </mxCell>
        <mxCell id="_2NASYxuOexbDyS9MmBw-119" style="edgeStyle=orthogonalEdgeStyle;rounded=0;orthogonalLoop=1;jettySize=auto;html=1;exitX=1;exitY=0.5;exitDx=0;exitDy=0;entryX=0;entryY=0.5;entryDx=0;entryDy=0;strokeColor=#00CC00;fillColor=default;strokeWidth=2;fontStyle=1;jumpStyle=arc;jumpSize=11;" parent="1" source="_2NASYxuOexbDyS9MmBw-80" target="_2NASYxuOexbDyS9MmBw-39" edge="1">
          <mxGeometry relative="1" as="geometry">
            <Array as="points">
              <mxPoint x="3390" y="1734" />
              <mxPoint x="3390" y="903" />
            </Array>
          </mxGeometry>
        </mxCell>
        <mxCell id="_2NASYxuOexbDyS9MmBw-127" style="edgeStyle=orthogonalEdgeStyle;rounded=0;orthogonalLoop=1;jettySize=auto;html=1;exitX=1;exitY=0.5;exitDx=0;exitDy=0;entryX=0.5;entryY=1;entryDx=0;entryDy=0;strokeColor=#00CC00;fillColor=default;strokeWidth=2;fontStyle=1;" parent="1" source="_2NASYxuOexbDyS9MmBw-80" target="_2NASYxuOexbDyS9MmBw-120" edge="1">
          <mxGeometry relative="1" as="geometry" />
        </mxCell>
        <mxCell id="_2NASYxuOexbDyS9MmBw-128" style="edgeStyle=orthogonalEdgeStyle;rounded=0;orthogonalLoop=1;jettySize=auto;html=1;exitX=1;exitY=0.5;exitDx=0;exitDy=0;entryX=0.5;entryY=1;entryDx=0;entryDy=0;strokeColor=#00CC00;fillColor=default;strokeWidth=2;fontStyle=1;jumpStyle=none;jumpSize=11;" parent="1" source="_2NASYxuOexbDyS9MmBw-80" target="_2NASYxuOexbDyS9MmBw-121" edge="1">
          <mxGeometry relative="1" as="geometry">
            <Array as="points">
              <mxPoint x="3210" y="1734" />
              <mxPoint x="3210" y="350" />
              <mxPoint x="3106" y="350" />
            </Array>
          </mxGeometry>
        </mxCell>
        <mxCell id="_2NASYxuOexbDyS9MmBw-80" value="IF &lt;br&gt;RETRY COUNT &lt;br&gt;&amp;lt; = 3" style="rounded=0;whiteSpace=wrap;html=1;fontStyle=1;strokeWidth=2;shape=rhombus;perimeter=rhombusPerimeter;" parent="1" vertex="1">
          <mxGeometry x="2858.5" y="1698.88" width="95" height="70" as="geometry" />
        </mxCell>
        <mxCell id="_2NASYxuOexbDyS9MmBw-106" value="VERIFY &lt;br&gt;POI: &lt;u&gt;OB.3.A&lt;/u&gt;&lt;br&gt;POA:&amp;nbsp;&lt;span style=&quot;border-color: var(--border-color);&quot;&gt;&lt;u&gt;OB.3.B&lt;/u&gt;&lt;br&gt;POR: &lt;u&gt;OB.3.C&lt;/u&gt;&lt;br&gt;&lt;/span&gt;" style="rounded=0;whiteSpace=wrap;html=1;fontStyle=1;strokeWidth=2;fontSize=11;" parent="1" vertex="1">
          <mxGeometry x="3601" y="860" width="100" height="62.5" as="geometry" />
        </mxCell>
        <mxCell id="_2NASYxuOexbDyS9MmBw-109" style="edgeStyle=orthogonalEdgeStyle;rounded=0;orthogonalLoop=1;jettySize=auto;html=1;exitX=0.5;exitY=0;exitDx=0;exitDy=0;entryX=0.5;entryY=1;entryDx=0;entryDy=0;strokeColor=#00CC00;strokeWidth=2;fontStyle=1;" parent="1" source="_2NASYxuOexbDyS9MmBw-110" target="_2NASYxuOexbDyS9MmBw-111" edge="1">
          <mxGeometry relative="1" as="geometry" />
        </mxCell>
        <mxCell id="_2NASYxuOexbDyS9MmBw-110" value="RECEIVE OTP TO NEW EMAIL/ PHONE NUMBER" style="rounded=0;whiteSpace=wrap;html=1;fontStyle=1;strokeWidth=2;fontSize=11;" parent="1" vertex="1">
          <mxGeometry x="3941.88" y="295.5" width="135" height="60" as="geometry" />
        </mxCell>
        <mxCell id="_2NASYxuOexbDyS9MmBw-111" value="AUTHENTICATE WITH RECEIVED OTP: &lt;u&gt;AU.2.C&lt;/u&gt;" style="rounded=0;whiteSpace=wrap;html=1;fontStyle=1;strokeWidth=2;fontSize=11;" parent="1" vertex="1">
          <mxGeometry x="3941.88" y="208" width="135" height="60" as="geometry" />
        </mxCell>
        <mxCell id="_2NASYxuOexbDyS9MmBw-112" value="RECEIVE ADDRESS UPDATE SUCCESS/FAIL NOTIFICATION" style="rounded=0;whiteSpace=wrap;html=1;fontStyle=1;strokeWidth=2;fontSize=11;" parent="1" vertex="1">
          <mxGeometry x="3774.38" y="295.5" width="135" height="60" as="geometry" />
        </mxCell>
        <mxCell id="_2NASYxuOexbDyS9MmBw-113" value="RECEIVE CONTACT UPDATE SUCCESS/FAIL NOTIFICATION" style="rounded=0;whiteSpace=wrap;html=1;fontStyle=1;strokeWidth=2;fontSize=11;" parent="1" vertex="1">
          <mxGeometry x="4128.88" y="295.5" width="135" height="60" as="geometry" />
        </mxCell>
        <mxCell id="_2NASYxuOexbDyS9MmBw-114" value="RECEIVE UIN ACCOUNT LOCKED FOR 24 HOURS NOTIFICATION WITH FURTHER CONTACT FOR SUPPORT" style="rounded=0;whiteSpace=wrap;html=1;fontStyle=1;strokeWidth=2;fontSize=11;" parent="1" vertex="1">
          <mxGeometry x="4286.88" y="281.5" width="135" height="74" as="geometry" />
        </mxCell>
        <mxCell id="bOGRKbOoEIt-_d6ExcWd-59" style="edgeStyle=orthogonalEdgeStyle;rounded=0;orthogonalLoop=1;jettySize=auto;html=1;exitX=0;exitY=1;exitDx=0;exitDy=0;entryX=0.791;entryY=-0.011;entryDx=0;entryDy=0;entryPerimeter=0;strokeColor=#FF2617;strokeWidth=2;fontStyle=1;startArrow=classic;startFill=1;jumpStyle=arc;jumpSize=11;" parent="1" source="bOGRKbOoEIt-_d6ExcWd-46" target="_2NASYxuOexbDyS9MmBw-56" edge="1">
          <mxGeometry relative="1" as="geometry">
            <mxPoint x="3534.4799999999996" y="1646.6" as="targetPoint" />
          </mxGeometry>
        </mxCell>
        <mxCell id="bOGRKbOoEIt-_d6ExcWd-60" value="&lt;b style=&quot;font-size: 9px;&quot;&gt;UPDATE&lt;br&gt;VERIFICATION STATUS: &lt;br&gt;FAIL&lt;/b&gt;" style="edgeLabel;html=1;align=center;verticalAlign=middle;resizable=0;points=[];" parent="bOGRKbOoEIt-_d6ExcWd-59" vertex="1" connectable="0">
          <mxGeometry x="-0.1054" y="-1" relative="1" as="geometry">
            <mxPoint x="-17" y="27" as="offset" />
          </mxGeometry>
        </mxCell>
        <mxCell id="bOGRKbOoEIt-_d6ExcWd-73" style="edgeStyle=orthogonalEdgeStyle;rounded=0;orthogonalLoop=1;jettySize=auto;html=1;exitX=0;exitY=0;exitDx=0;exitDy=0;strokeColor=#00CC00;strokeWidth=2;fontStyle=1;startArrow=classic;startFill=1;jumpStyle=arc;jumpSize=11;" parent="1" source="bOGRKbOoEIt-_d6ExcWd-69" target="_2NASYxuOexbDyS9MmBw-56" edge="1">
          <mxGeometry relative="1" as="geometry">
            <Array as="points">
              <mxPoint x="4076" y="1527" />
              <mxPoint x="3516" y="1527" />
            </Array>
            <mxPoint x="3516.2400000000007" y="1642.5770000000002" as="targetPoint" />
          </mxGeometry>
        </mxCell>
        <mxCell id="bOGRKbOoEIt-_d6ExcWd-74" style="edgeStyle=orthogonalEdgeStyle;rounded=0;orthogonalLoop=1;jettySize=auto;html=1;exitX=0;exitY=1;exitDx=0;exitDy=0;strokeColor=#FF2617;strokeWidth=2;fontStyle=1;startArrow=classic;startFill=1;entryX=0.791;entryY=-0.011;entryDx=0;entryDy=0;entryPerimeter=0;jumpStyle=arc;jumpSize=11;" parent="1" source="bOGRKbOoEIt-_d6ExcWd-69" target="_2NASYxuOexbDyS9MmBw-56" edge="1">
          <mxGeometry relative="1" as="geometry">
            <mxPoint x="3534.4799999999996" y="1646.6" as="targetPoint" />
            <Array as="points">
              <mxPoint x="4076" y="1627" />
              <mxPoint x="3535" y="1627" />
            </Array>
          </mxGeometry>
        </mxCell>
        <mxCell id="_2NASYxuOexbDyS9MmBw-120" value="P/G/I AUTHENTICATION USING (ONE):&lt;br&gt;FINGERPRINT:&amp;nbsp;&lt;u style=&quot;border-color: var(--border-color);&quot;&gt;AU.3.B&lt;/u&gt;&lt;br style=&quot;border-color: var(--border-color);&quot;&gt;IRIS:&amp;nbsp;&lt;u style=&quot;border-color: var(--border-color);&quot;&gt;AU.3.C&lt;br style=&quot;border-color: var(--border-color);&quot;&gt;&lt;/u&gt;FACIAL:&amp;nbsp;&lt;u style=&quot;border-color: var(--border-color);&quot;&gt;AU.3.D&lt;/u&gt;" style="rounded=0;whiteSpace=wrap;html=1;fontStyle=1;strokeWidth=2;" parent="1" vertex="1">
          <mxGeometry x="3021" y="640" width="170" height="73.5" as="geometry" />
        </mxCell>
        <mxCell id="_2NASYxuOexbDyS9MmBw-124" style="edgeStyle=orthogonalEdgeStyle;rounded=0;orthogonalLoop=1;jettySize=auto;html=1;exitX=1;exitY=0.5;exitDx=0;exitDy=0;entryX=0.5;entryY=0;entryDx=0;entryDy=0;strokeColor=#00CC00;fillColor=default;strokeWidth=2;fontStyle=1;" parent="1" source="_2NASYxuOexbDyS9MmBw-121" target="_2NASYxuOexbDyS9MmBw-123" edge="1">
          <mxGeometry relative="1" as="geometry" />
        </mxCell>
        <mxCell id="_2NASYxuOexbDyS9MmBw-121" value="SUBSCRIBER&amp;nbsp; AUTHENTICATION USING (ONE):&lt;br&gt;FINGERPRINT:&amp;nbsp;&lt;u&gt;AU.3.B&lt;/u&gt;&lt;br&gt;IRIS:&amp;nbsp;&lt;u&gt;AU.3.C&lt;br&gt;&lt;/u&gt;FACIAL: &lt;u&gt;AU.3.D&lt;/u&gt;" style="rounded=0;whiteSpace=wrap;html=1;fontStyle=1;strokeWidth=2;" parent="1" vertex="1">
          <mxGeometry x="3006.75" y="203.19" width="198.5" height="73.5" as="geometry" />
        </mxCell>
        <mxCell id="_2NASYxuOexbDyS9MmBw-126" style="edgeStyle=orthogonalEdgeStyle;rounded=0;orthogonalLoop=1;jettySize=auto;html=1;exitX=0.5;exitY=1;exitDx=0;exitDy=0;strokeColor=#FF3300;fillColor=default;strokeWidth=2;fontStyle=1;jumpStyle=arc;jumpSize=11;" parent="1" source="_2NASYxuOexbDyS9MmBw-123" target="_2NASYxuOexbDyS9MmBw-82" edge="1">
          <mxGeometry relative="1" as="geometry">
            <Array as="points">
              <mxPoint x="3287" y="1590" />
              <mxPoint x="2970" y="1590" />
            </Array>
          </mxGeometry>
        </mxCell>
        <mxCell id="_2NASYxuOexbDyS9MmBw-129" value="RESET &lt;br&gt;COUNTER" style="edgeStyle=orthogonalEdgeStyle;rounded=0;orthogonalLoop=1;jettySize=auto;html=1;exitX=1;exitY=0.5;exitDx=0;exitDy=0;entryX=0;entryY=0.5;entryDx=0;entryDy=0;strokeColor=#00CC00;fillColor=default;strokeWidth=2;fontStyle=1;" parent="1" source="_2NASYxuOexbDyS9MmBw-123" target="_2NASYxuOexbDyS9MmBw-39" edge="1">
          <mxGeometry x="-0.8113" relative="1" as="geometry">
            <mxPoint x="3334.75" y="1501.75" as="sourcePoint" />
            <mxPoint x="3431" y="891.5" as="targetPoint" />
            <Array as="points">
              <mxPoint x="3335" y="902" />
            </Array>
            <mxPoint as="offset" />
          </mxGeometry>
        </mxCell>
        <mxCell id="_2NASYxuOexbDyS9MmBw-123" value="IF AUTH. SUCCESS" style="rhombus;whiteSpace=wrap;html=1;fontSize=11;rounded=0;fontStyle=1;strokeWidth=2;" parent="1" vertex="1">
          <mxGeometry x="3240" y="1476.75" width="94.75" height="72" as="geometry" />
        </mxCell>
        <mxCell id="XhxwvgybXEMde3jugNXO-1" style="edgeStyle=orthogonalEdgeStyle;rounded=0;orthogonalLoop=1;jettySize=auto;html=1;exitX=0.5;exitY=1;exitDx=0;exitDy=0;entryX=0.5;entryY=0;entryDx=0;entryDy=0;strokeColor=#FF3300;fillColor=default;strokeWidth=2;fontStyle=1;" parent="1" source="_2NASYxuOexbDyS9MmBw-82" target="_2NASYxuOexbDyS9MmBw-80" edge="1">
          <mxGeometry relative="1" as="geometry">
            <Array as="points">
              <mxPoint x="2881" y="1650" />
              <mxPoint x="2906" y="1650" />
            </Array>
          </mxGeometry>
        </mxCell>
        <mxCell id="_2NASYxuOexbDyS9MmBw-82" value="EXCEPTION AND ERROR HANDLING (COUNTER)" style="rounded=0;whiteSpace=wrap;html=1;fontStyle=1;strokeWidth=2;fontSize=11;shape=label;boundedLbl=1;backgroundOutline=1;size=9.769240159254764;" parent="1" vertex="1">
          <mxGeometry x="2742" y="1610" width="280" height="43.32" as="geometry" />
        </mxCell>
        <mxCell id="_2NASYxuOexbDyS9MmBw-81" value="NOTIFICATION GENERATOR" style="rounded=0;whiteSpace=wrap;html=1;fontStyle=1;strokeWidth=2;fontSize=11;fillColor=default;strokeColor=default;" parent="1" vertex="1">
          <mxGeometry x="3093" y="1629.88" width="320" height="19.19" as="geometry" />
        </mxCell>
        <mxCell id="_2NASYxuOexbDyS9MmBw-130" value="NOTIFICATION GENERATOR" style="rounded=0;whiteSpace=wrap;html=1;fontStyle=1;strokeWidth=2;fontSize=11;fillColor=default;strokeColor=default;" parent="1" vertex="1">
          <mxGeometry x="2330" y="1631.1299999999999" width="160" height="19.19" as="geometry" />
        </mxCell>
        <mxCell id="bOGRKbOoEIt-_d6ExcWd-42" value="" style="group" parent="1" vertex="1" connectable="0">
          <mxGeometry x="1962" y="1065" width="2608" height="60" as="geometry" />
        </mxCell>
        <mxCell id="YJR0z1WgLUDB-b2zbVjA-1" value="" style="group" parent="bOGRKbOoEIt-_d6ExcWd-42" vertex="1" connectable="0">
          <mxGeometry y="20" width="2608" height="40" as="geometry" />
        </mxCell>
        <mxCell id="8j6VqZWyWBpULk93ZD53-65" value="IDS, IPS, HONEYPOT" style="shape=label;whiteSpace=wrap;html=1;boundedLbl=1;backgroundOutline=1;darkOpacity=0.05;darkOpacity2=0.1;fillColor=#f0a30a;strokeColor=#BD7000;rounded=0;fontColor=#000000;fontSize=12;fontStyle=1" parent="YJR0z1WgLUDB-b2zbVjA-1" vertex="1">
          <mxGeometry y="20" width="2607.999999999999" height="20" as="geometry" />
        </mxCell>
        <mxCell id="8j6VqZWyWBpULk93ZD53-64" value="SINGLE/ DUAL FIREWALL" style="shape=label;whiteSpace=wrap;html=1;boundedLbl=1;backgroundOutline=1;darkOpacity=0.05;darkOpacity2=0.1;fillColor=#e51400;fontColor=#ffffff;strokeColor=#B20000;rounded=0;fontStyle=1" parent="YJR0z1WgLUDB-b2zbVjA-1" vertex="1">
          <mxGeometry width="2607.999999999999" height="20" as="geometry" />
        </mxCell>
        <mxCell id="f_N6EA1bxfHCcthCMWnL-4" value="API/ HTTPS (SSL/TLS)" style="shape=label;whiteSpace=wrap;html=1;boundedLbl=1;backgroundOutline=1;darkOpacity=0.05;darkOpacity2=0.1;fillColor=#f8cecc;strokeColor=#b85450;rounded=0;fontStyle=1" parent="bOGRKbOoEIt-_d6ExcWd-42" vertex="1">
          <mxGeometry width="2608" height="20" as="geometry" />
        </mxCell>
        <mxCell id="bOGRKbOoEIt-_d6ExcWd-43" value="" style="group" parent="1" vertex="1" connectable="0">
          <mxGeometry x="1963" y="1354.19" width="2607" height="60" as="geometry" />
        </mxCell>
        <mxCell id="YJR0z1WgLUDB-b2zbVjA-2" value="" style="group" parent="bOGRKbOoEIt-_d6ExcWd-43" vertex="1" connectable="0">
          <mxGeometry y="20" width="2607" height="40" as="geometry" />
        </mxCell>
        <mxCell id="8j6VqZWyWBpULk93ZD53-66" value="SINGLE / DUAL FIREWALL" style="shape=label;whiteSpace=wrap;html=1;boundedLbl=1;backgroundOutline=1;darkOpacity=0.05;darkOpacity2=0.1;fillColor=#e51400;fontColor=#ffffff;strokeColor=#B20000;rounded=0;fontStyle=1" parent="YJR0z1WgLUDB-b2zbVjA-2" vertex="1">
          <mxGeometry width="2607" height="20" as="geometry" />
        </mxCell>
        <mxCell id="8j6VqZWyWBpULk93ZD53-67" value="IDS, IPS, HONEYPOT" style="shape=label;whiteSpace=wrap;html=1;boundedLbl=1;backgroundOutline=1;darkOpacity=0.05;darkOpacity2=0.1;fillColor=#f0a30a;strokeColor=#BD7000;rounded=0;fontColor=#000000;fontSize=12;fontStyle=1" parent="YJR0z1WgLUDB-b2zbVjA-2" vertex="1">
          <mxGeometry y="20" width="2607" height="20" as="geometry" />
        </mxCell>
        <mxCell id="oByt-uk4F92XMUXTlmi7-3" value="API/ HTTPS (SSL/TLS)" style="shape=label;whiteSpace=wrap;html=1;boundedLbl=1;backgroundOutline=1;darkOpacity=0.05;darkOpacity2=0.1;fillColor=#f8cecc;strokeColor=#b85450;rounded=0;fontStyle=1" parent="bOGRKbOoEIt-_d6ExcWd-43" vertex="1">
          <mxGeometry width="2607" height="20" as="geometry" />
        </mxCell>
        <mxCell id="iMXAWb_fKJ0mwPBksbNd-1" value="AC" style="ellipse;whiteSpace=wrap;html=1;fillColor=#dae8fc;strokeColor=#6c8ebf;gradientColor=#7ea6e0;fontStyle=1" parent="1" vertex="1">
          <mxGeometry x="3240" y="1470" width="30" height="26" as="geometry" />
        </mxCell>
        <mxCell id="XhxwvgybXEMde3jugNXO-2" value="IDA" style="ellipse;whiteSpace=wrap;html=1;fillColor=#dae8fc;strokeColor=#6c8ebf;gradientColor=#7ea6e0;fontStyle=1" parent="1" vertex="1">
          <mxGeometry x="3410" y="1650" width="30" height="26" as="geometry" />
        </mxCell>
        <mxCell id="_2NASYxuOexbDyS9MmBw-125" style="edgeStyle=orthogonalEdgeStyle;rounded=0;orthogonalLoop=1;jettySize=auto;html=1;exitX=1;exitY=0.5;exitDx=0;exitDy=0;strokeColor=#00CC00;fillColor=default;strokeWidth=2;fontStyle=1;jumpStyle=arc;jumpSize=11;" parent="1" source="_2NASYxuOexbDyS9MmBw-120" target="_2NASYxuOexbDyS9MmBw-123" edge="1">
          <mxGeometry relative="1" as="geometry" />
        </mxCell>
        <mxCell id="_2NASYxuOexbDyS9MmBw-45" style="edgeStyle=orthogonalEdgeStyle;rounded=0;orthogonalLoop=1;jettySize=auto;html=1;exitX=0.5;exitY=0;exitDx=0;exitDy=0;entryX=0.5;entryY=1;entryDx=0;entryDy=0;strokeColor=#FF3300;fillColor=default;strokeWidth=2;fontStyle=1;jumpStyle=arc;jumpSize=11;" parent="1" source="_2NASYxuOexbDyS9MmBw-39" target="_2NASYxuOexbDyS9MmBw-26" edge="1">
          <mxGeometry relative="1" as="geometry">
            <Array as="points">
              <mxPoint x="3501" y="620" />
              <mxPoint x="2676" y="620" />
            </Array>
          </mxGeometry>
        </mxCell>
        <mxCell id="_2NASYxuOexbDyS9MmBw-46" style="edgeStyle=orthogonalEdgeStyle;rounded=0;orthogonalLoop=1;jettySize=auto;html=1;exitX=0.5;exitY=0;exitDx=0;exitDy=0;entryX=0.5;entryY=1;entryDx=0;entryDy=0;strokeColor=#FF3300;fillColor=default;strokeWidth=2;fontStyle=1;jumpStyle=arc;jumpSize=11;" parent="1" source="_2NASYxuOexbDyS9MmBw-39" target="_2NASYxuOexbDyS9MmBw-23" edge="1">
          <mxGeometry relative="1" as="geometry">
            <Array as="points">
              <mxPoint x="3501" y="810" />
              <mxPoint x="2690" y="810" />
            </Array>
          </mxGeometry>
        </mxCell>
        <mxCell id="_2NASYxuOexbDyS9MmBw-14" style="edgeStyle=orthogonalEdgeStyle;rounded=0;orthogonalLoop=1;jettySize=auto;html=1;exitX=1;exitY=0.5;exitDx=0;exitDy=0;entryX=0;entryY=0.5;entryDx=0;entryDy=0;strokeColor=#00CC00;fillColor=default;strokeWidth=2;fontStyle=1;jumpStyle=arc;jumpSize=11;" parent="1" source="_2NASYxuOexbDyS9MmBw-9" target="_2NASYxuOexbDyS9MmBw-13" edge="1">
          <mxGeometry relative="1" as="geometry">
            <Array as="points">
              <mxPoint x="2370" y="692" />
              <mxPoint x="2370" y="520" />
            </Array>
          </mxGeometry>
        </mxCell>
        <mxCell id="_2NASYxuOexbDyS9MmBw-122" style="edgeStyle=orthogonalEdgeStyle;rounded=0;orthogonalLoop=1;jettySize=auto;html=1;exitX=1;exitY=0.5;exitDx=0;exitDy=0;entryX=0.5;entryY=1;entryDx=0;entryDy=0;strokeColor=#00CC00;fillColor=default;strokeWidth=2;fontStyle=1;jumpStyle=arc;jumpSize=11;" parent="1" source="_2NASYxuOexbDyS9MmBw-70" target="_2NASYxuOexbDyS9MmBw-121" edge="1">
          <mxGeometry relative="1" as="geometry">
            <Array as="points">
              <mxPoint x="3210" y="1515" />
              <mxPoint x="3210" y="350" />
              <mxPoint x="3106" y="350" />
            </Array>
          </mxGeometry>
        </mxCell>
        <mxCell id="_2NASYxuOexbDyS9MmBw-118" style="edgeStyle=orthogonalEdgeStyle;rounded=0;orthogonalLoop=1;jettySize=auto;html=1;exitX=0;exitY=0.5;exitDx=0;exitDy=0;strokeColor=#FF3300;fillColor=default;strokeWidth=2;fontStyle=1;jumpStyle=arc;jumpSize=11;" parent="1" source="RXy6DamFLEHfM2ugey37-38" target="_2NASYxuOexbDyS9MmBw-82" edge="1">
          <mxGeometry relative="1" as="geometry">
            <Array as="points">
              <mxPoint x="3370" y="1188" />
              <mxPoint x="3370" y="1570" />
              <mxPoint x="2940" y="1570" />
            </Array>
          </mxGeometry>
        </mxCell>
        <mxCell id="3zaVHs_VBuehJCtquWSa-1" value="&lt;div style=&quot;font-size: 18px;&quot;&gt;&lt;font style=&quot;font-size: 18px;&quot;&gt;&lt;b style=&quot;font-size: 18px;&quot;&gt;Purpose:&lt;/b&gt;&lt;/font&gt;&lt;/div&gt;&lt;div style=&quot;font-size: 18px;&quot;&gt;This SOP s&lt;span style=&quot;background-color: rgb(255, 255, 255); color: rgb(13, 13, 13); font-size: 18px; white-space-collapse: preserve;&quot;&gt;pecifies how users can update their personal information offline. &lt;/span&gt;&lt;br style=&quot;font-size: 18px;&quot;&gt;&lt;/div&gt;" style="whiteSpace=wrap;html=1;align=left;rounded=0;strokeWidth=2;verticalAlign=middle;fontFamily=Helvetica;fontSize=18;fontStyle=0;" vertex="1" parent="1">
          <mxGeometry x="1930" y="-10" width="2680" height="60" as="geometry" />
        </mxCell>
      </root>
    </mxGraphModel>
  </diagram>
</mxfile>
